<?xml version="1.0" encoding="UTF-8"?>
<svg version="1.1" xmlns="http://www.w3.org/2000/svg" width="1024" height="1024">
<path d="M0 0 C337.92 0 675.84 0 1024 0 C1024 337.92 1024 675.84 1024 1024 C686.08 1024 348.16 1024 0 1024 C0 686.08 0 348.16 0 0 Z " fill="#050607" transform="translate(0,0)"/>
<path d="M0 0 C6.04346228 3.60063121 11.52507113 8.22381438 17 12.625 C17.93199219 13.37265625 18.86398437 14.1203125 19.82421875 14.890625 C24.15843427 18.40861599 28.43538568 21.98936119 32.68286133 25.61108398 C38.21059327 30.32228504 43.82162629 34.89113068 49.55126953 39.35449219 C59.54191179 47.1473586 69.30158545 55.23244476 79.10546875 63.2578125 C91.9411512 73.76035203 91.9411512 73.76035203 104.9375 84.0625 C111.02980556 88.81462129 116.9977778 93.70902067 122.95141602 98.63330078 C127.50274383 102.3970089 132.08537362 106.11577047 136.70703125 109.79296875 C140.61275923 112.91355891 144.47556552 116.08620213 148.33789062 119.26025391 C150.21845124 120.80436875 152.10150567 122.34542009 153.984375 123.88671875 C161.36155076 129.93492419 168.68897045 136.02532145 175.8840332 142.28955078 C179.37711249 145.30783769 182.9646187 148.141753 186.65283203 150.91723633 C193.55173846 156.12834527 199.19913572 161.22240716 202 169.625 C202.53935868 175.98943245 201.59897986 180.29408785 198 185.625 C194.0335721 189.35103833 190.3914004 189.74194527 185.03515625 189.85546875 C182.66936611 189.58755777 181.0923633 188.72614335 179 187.625 C179.00368717 188.38792012 179.00737434 189.15084024 179.01117325 189.93687916 C179.09966053 208.533805 179.16577576 227.13068861 179.20724869 245.72778034 C179.22783978 254.72134798 179.25589406 263.71477475 179.30175781 272.70825195 C179.34173164 280.55053007 179.36745789 288.39270611 179.37635398 296.23508328 C179.38155095 300.38437777 179.39369294 304.53338037 179.42292023 308.68258095 C179.45025645 312.59536134 179.45840866 316.50773216 179.45243073 320.42059898 C179.45352289 321.84956469 179.46136796 323.27854542 179.4768219 324.70742798 C179.58146279 334.88997454 178.4435911 343.25704918 172.875 351.9375 C162.7922271 361.36270075 153.03429777 362.92529924 139.72866821 362.89242554 C138.37197917 362.89616498 137.01529229 362.90076768 135.65860879 362.90615618 C131.94065713 362.91836502 128.22279558 362.91812823 124.50482845 362.91576743 C120.49109454 362.91535873 116.47738931 362.92640337 112.46366882 362.93588257 C104.60421281 362.95248133 96.7447868 362.95799158 88.88531472 362.95910732 C82.49634739 362.96005822 76.10738995 362.96417058 69.71842575 362.97050858 C51.59932189 362.988117 33.48024171 362.99734793 15.36112924 362.99584763 C14.38473003 362.99576772 13.40833082 362.9956878 12.40234375 362.99560547 C11.42475079 362.99552371 10.44715784 362.99544195 9.43994085 362.99535771 C-6.40626447 362.99454466 -22.25237479 363.01368814 -38.09855263 363.0418822 C-54.37439308 363.07061199 -70.65018719 363.08442248 -86.92605364 363.08269465 C-96.06171916 363.08203084 -105.19728504 363.08751941 -114.3329277 363.10905075 C-122.11030981 363.12726367 -129.88754709 363.13160889 -137.6649413 363.1180319 C-141.63167828 363.11150312 -145.59813741 363.11138166 -149.56484795 363.1287384 C-153.19944021 363.14447819 -156.83353451 363.14159674 -160.46811469 363.12417014 C-162.39874073 363.11965401 -164.32938228 363.1347504 -166.25994813 363.15064943 C-176.53248726 363.06917359 -183.67784469 360.56975834 -191.2109375 353.546875 C-199.94142138 344.1682766 -200.29370577 334.53439716 -200.22705078 322.24438477 C-200.22648605 320.7852428 -200.22680443 319.32610026 -200.22793579 317.86695862 C-200.2285079 313.92116773 -200.21677659 309.97549928 -200.20278788 306.02973676 C-200.19025686 301.90044102 -200.18910815 297.77114226 -200.18673706 293.64183044 C-200.18052925 285.82927421 -200.16412791 278.01677417 -200.14403808 270.20424265 C-200.1216573 261.30703864 -200.11068017 252.4098319 -200.10064721 243.51260674 C-200.07976105 225.21670601 -200.0445987 206.92085753 -200 188.625 C-200.99 188.955 -201.98 189.285 -203 189.625 C-207.96466601 190.14624721 -211.87882824 190.15500847 -216.4375 188 C-220.18216694 184.52933308 -221.77183416 181.93201018 -222.28125 176.78125 C-222.5390978 168.1003742 -220.58160954 162.8905921 -214.83984375 156.4609375 C-211.19091228 152.81975324 -207.08247878 149.75985888 -203 146.625 C-200.72474659 144.85980037 -198.45509739 143.0875212 -196.1875 141.3125 C-195.59477295 140.8489209 -195.0020459 140.3853418 -194.39135742 139.90771484 C-189.17466753 135.80631728 -184.11368641 131.5372361 -179.06640625 127.23046875 C-175.44394794 124.14208361 -171.75871124 121.13327087 -168.06640625 118.12890625 C-165.71303941 116.20723983 -163.36757233 114.27740478 -161.02734375 112.33984375 C-153.71357741 106.2875313 -146.36727141 100.29364467 -138.88305664 94.453125 C-134.52599273 91.05028631 -130.23504991 87.57397643 -125.96484375 84.0625 C-116.81604143 76.54095501 -107.6248003 69.07898396 -98.28979492 61.78955078 C-93.12724811 57.74853534 -88.0454734 53.61186224 -82.9675293 49.46533203 C-78.62244874 45.92388377 -74.23551842 42.44342374 -69.8125 39 C-64.7308594 35.03998277 -59.79204137 30.94287903 -54.89819336 26.75390625 C-50.39607373 22.91778065 -45.77526881 19.25092508 -41.10302734 15.62475586 C-37.37212776 12.72497658 -33.73691964 9.7356808 -30.125 6.6875 C-21.29707482 -0.47235792 -11.43792562 -5.08890759 0 0 Z " fill="#070404" transform="translate(522,222.375)"/>
<path d="M0 0 C6.04346228 3.60063121 11.52507113 8.22381438 17 12.625 C17.93199219 13.37265625 18.86398437 14.1203125 19.82421875 14.890625 C24.15843427 18.40861599 28.43538568 21.98936119 32.68286133 25.61108398 C38.21059327 30.32228504 43.82162629 34.89113068 49.55126953 39.35449219 C59.54191179 47.1473586 69.30158545 55.23244476 79.10546875 63.2578125 C91.9411512 73.76035203 91.9411512 73.76035203 104.9375 84.0625 C111.02980556 88.81462129 116.9977778 93.70902067 122.95141602 98.63330078 C127.50274383 102.3970089 132.08537362 106.11577047 136.70703125 109.79296875 C140.61275923 112.91355891 144.47556552 116.08620213 148.33789062 119.26025391 C150.21845124 120.80436875 152.10150567 122.34542009 153.984375 123.88671875 C161.36155076 129.93492419 168.68897045 136.02532145 175.8840332 142.28955078 C179.37711249 145.30783769 182.9646187 148.141753 186.65283203 150.91723633 C193.55173846 156.12834527 199.19913572 161.22240716 202 169.625 C202.53935868 175.98943245 201.59897986 180.29408785 198 185.625 C194.0335721 189.35103833 190.3914004 189.74194527 185.03515625 189.85546875 C182.66936611 189.58755777 181.0923633 188.72614335 179 187.625 C179.00368717 188.38792012 179.00737434 189.15084024 179.01117325 189.93687916 C179.09966053 208.533805 179.16577576 227.13068861 179.20724869 245.72778034 C179.22783978 254.72134798 179.25589406 263.71477475 179.30175781 272.70825195 C179.34173164 280.55053007 179.36745789 288.39270611 179.37635398 296.23508328 C179.38155095 300.38437777 179.39369294 304.53338037 179.42292023 308.68258095 C179.45025645 312.59536134 179.45840866 316.50773216 179.45243073 320.42059898 C179.45352289 321.84956469 179.46136796 323.27854542 179.4768219 324.70742798 C179.58146279 334.88997454 178.4435911 343.25704918 172.875 351.9375 C162.7922271 361.36270075 153.03429777 362.92529924 139.72866821 362.89242554 C138.37197917 362.89616498 137.01529229 362.90076768 135.65860879 362.90615618 C131.94065713 362.91836502 128.22279558 362.91812823 124.50482845 362.91576743 C120.49109454 362.91535873 116.47738931 362.92640337 112.46366882 362.93588257 C104.60421281 362.95248133 96.7447868 362.95799158 88.88531472 362.95910732 C82.49634739 362.96005822 76.10738995 362.96417058 69.71842575 362.97050858 C51.59932189 362.988117 33.48024171 362.99734793 15.36112924 362.99584763 C14.38473003 362.99576772 13.40833082 362.9956878 12.40234375 362.99560547 C11.42475079 362.99552371 10.44715784 362.99544195 9.43994085 362.99535771 C-6.40626447 362.99454466 -22.25237479 363.01368814 -38.09855263 363.0418822 C-54.37439308 363.07061199 -70.65018719 363.08442248 -86.92605364 363.08269465 C-96.06171916 363.08203084 -105.19728504 363.08751941 -114.3329277 363.10905075 C-122.11030981 363.12726367 -129.88754709 363.13160889 -137.6649413 363.1180319 C-141.63167828 363.11150312 -145.59813741 363.11138166 -149.56484795 363.1287384 C-153.19944021 363.14447819 -156.83353451 363.14159674 -160.46811469 363.12417014 C-162.39874073 363.11965401 -164.32938228 363.1347504 -166.25994813 363.15064943 C-176.53248726 363.06917359 -183.67784469 360.56975834 -191.2109375 353.546875 C-199.94142138 344.1682766 -200.29370577 334.53439716 -200.22705078 322.24438477 C-200.22648605 320.7852428 -200.22680443 319.32610026 -200.22793579 317.86695862 C-200.2285079 313.92116773 -200.21677659 309.97549928 -200.20278788 306.02973676 C-200.19025686 301.90044102 -200.18910815 297.77114226 -200.18673706 293.64183044 C-200.18052925 285.82927421 -200.16412791 278.01677417 -200.14403808 270.20424265 C-200.1216573 261.30703864 -200.11068017 252.4098319 -200.10064721 243.51260674 C-200.07976105 225.21670601 -200.0445987 206.92085753 -200 188.625 C-200.99 188.955 -201.98 189.285 -203 189.625 C-207.96466601 190.14624721 -211.87882824 190.15500847 -216.4375 188 C-220.18216694 184.52933308 -221.77183416 181.93201018 -222.28125 176.78125 C-222.5390978 168.1003742 -220.58160954 162.8905921 -214.83984375 156.4609375 C-211.19091228 152.81975324 -207.08247878 149.75985888 -203 146.625 C-200.72474659 144.85980037 -198.45509739 143.0875212 -196.1875 141.3125 C-195.59477295 140.8489209 -195.0020459 140.3853418 -194.39135742 139.90771484 C-189.17466753 135.80631728 -184.11368641 131.5372361 -179.06640625 127.23046875 C-175.44394794 124.14208361 -171.75871124 121.13327087 -168.06640625 118.12890625 C-165.71303941 116.20723983 -163.36757233 114.27740478 -161.02734375 112.33984375 C-153.71357741 106.2875313 -146.36727141 100.29364467 -138.88305664 94.453125 C-134.52599273 91.05028631 -130.23504991 87.57397643 -125.96484375 84.0625 C-116.81604143 76.54095501 -107.6248003 69.07898396 -98.28979492 61.78955078 C-93.12724811 57.74853534 -88.0454734 53.61186224 -82.9675293 49.46533203 C-78.62244874 45.92388377 -74.23551842 42.44342374 -69.8125 39 C-64.7308594 35.03998277 -59.79204137 30.94287903 -54.89819336 26.75390625 C-50.39607373 22.91778065 -45.77526881 19.25092508 -41.10302734 15.62475586 C-37.37212776 12.72497658 -33.73691964 9.7356808 -30.125 6.6875 C-21.29707482 -0.47235792 -11.43792562 -5.08890759 0 0 Z M-27.3125 44.5 C-27.91151123 44.97268311 -28.51052246 45.44536621 -29.12768555 45.93237305 C-36.844374 52.0497068 -44.41745855 58.34290335 -52 64.625 C-60.51562387 71.68015064 -69.03636746 78.7133001 -77.76025391 85.51025391 C-82.24386731 89.00975325 -86.65879965 92.58814044 -91.0625 96.1875 C-95.92401261 100.15890113 -100.82057424 104.06870342 -105.8125 107.875 C-113.28006173 113.57900471 -120.53339032 119.51489786 -127.68286133 125.61108398 C-132.64980903 129.84433724 -137.66620226 133.9860771 -142.8125 138 C-148.10862371 142.13546308 -153.38597757 146.2923 -158.625 150.5 C-159.30022705 151.03544434 -159.9754541 151.57088867 -160.67114258 152.12255859 C-164.81887963 155.46823546 -168.57430165 158.7736033 -171 163.625 C-171.10056142 165.67655755 -171.13512022 167.73144763 -171.14044189 169.78546143 C-171.14615204 171.10056198 -171.15186218 172.41566254 -171.15774536 173.77061462 C-171.1589908 175.23672476 -171.16011587 176.702835 -171.16113281 178.16894531 C-171.16575995 179.70628479 -171.17078447 181.24362311 -171.17617798 182.78096008 C-171.18931574 186.96499493 -171.19574984 191.14901373 -171.20018864 195.33306599 C-171.2031177 197.94661234 -171.20722223 200.56015429 -171.21169281 203.17369843 C-171.22537259 211.34933142 -171.23503637 219.52495436 -171.2388947 227.700598 C-171.24337403 237.14066565 -171.26091406 246.58058841 -171.2898953 256.020612 C-171.31151221 263.31495627 -171.32159902 270.60925978 -171.32293582 277.90363574 C-171.32398403 282.26114387 -171.32989485 286.61851587 -171.34775543 290.9759903 C-171.36423586 295.07670391 -171.36639181 299.17717911 -171.35761642 303.27791405 C-171.35684598 304.78153052 -171.36118981 306.2851598 -171.37107468 307.78874397 C-171.38379784 309.84498042 -171.37791629 311.90037295 -171.36749268 313.956604 C-171.36895924 315.1062476 -171.3704258 316.25589119 -171.3719368 317.44037247 C-170.79425891 322.38661308 -169.11919845 325.61499164 -165.4375 328.9375 C-161.97112619 331.33729726 -160.24379074 331.7507126 -156.06983566 331.75642776 C-155.02105169 331.76026891 -153.97226772 331.76411005 -152.89170241 331.7680676 C-151.73044538 331.76720112 -150.56918834 331.76633463 -149.3727417 331.76544189 C-148.14611698 331.76841302 -146.91949227 331.77138414 -145.65569711 331.7744453 C-142.23991036 331.78164152 -138.82417388 331.78430585 -135.40838313 331.78504276 C-131.72864512 331.78689028 -128.04891809 331.79443613 -124.3691864 331.80117798 C-116.31750737 331.81477486 -108.26583331 331.82078826 -100.21414471 331.82518864 C-95.18845959 331.82794904 -90.1627764 331.83218605 -85.13709259 331.83669281 C-71.22807308 331.84888775 -57.31905511 331.85918629 -43.41003036 331.8625679 C-42.51935899 331.86278747 -41.62868762 331.86300703 -40.71102621 331.86323325 C-39.37178062 331.86356067 -39.37178062 331.86356067 -38.00547957 331.8638947 C-36.19619862 331.86433817 -34.38691767 331.86478473 -32.57763672 331.86523438 C-31.68016654 331.8654558 -30.78269636 331.86567723 -29.85803011 331.86590537 C-15.31573623 331.86985338 -0.77349247 331.88730648 13.76878205 331.9105939 C28.6918201 331.93429853 43.61483301 331.94676936 58.5378902 331.94793582 C66.91954701 331.94885314 75.30113855 331.95461956 83.6827774 331.97275543 C90.8202507 331.98814451 97.95763856 331.993284 105.09512529 331.98501733 C108.73737614 331.98110643 112.37945489 331.98206165 116.02168465 331.99607468 C119.96946676 332.01112444 123.91700574 332.00295995 127.86480713 331.99249268 C129.01714128 332.00054908 130.16947543 332.00860548 131.35672879 332.01690602 C139.14157268 332.01796858 139.14157268 332.01796858 146 328.625 C149.58806073 324.38707311 150.50078062 321.4064503 150.50793457 315.90759277 C150.51729451 314.9323258 150.51729451 314.9323258 150.52684355 313.93735647 C150.54271896 311.77231497 150.5301922 309.60840796 150.51757812 307.44335938 C150.52300172 305.88572028 150.53012572 304.32808632 150.53881836 302.77046204 C150.55702654 298.54934634 150.54999467 294.32862247 150.53730202 290.10750008 C150.52716132 285.68603601 150.53657067 281.26460506 150.54284668 276.84313965 C150.55011997 269.41864002 150.54054376 261.99429966 150.52148438 254.56982422 C150.4997162 245.9911903 150.50676779 237.41293667 150.52879 228.83431196 C150.54695309 221.46342452 150.54949789 214.09265143 150.53903532 206.72174883 C150.53280537 202.32181599 150.53195099 197.9220618 150.54518127 193.5221405 C150.55675244 189.38515139 150.54869125 185.24865166 150.52560425 181.11171532 C150.52032387 179.59520975 150.52181949 178.07866286 150.53065491 176.56217384 C150.54162167 174.488366 150.52783661 172.41611635 150.50793457 170.34240723 C150.50642647 169.18321022 150.50491837 168.02401321 150.50336456 166.82968903 C148.85551644 156.33860329 136.70305735 149.07693798 128.8984375 142.921875 C125.23900728 140.02194917 121.62006834 137.07381408 118 134.125 C112.9093989 129.98249839 107.80439708 125.86004801 102.671875 121.76953125 C99.1827544 118.96905287 95.71781898 116.13928178 92.25 113.3125 C87.14619494 109.15251236 82.007623 105.04527495 76.8125 101 C71.72717503 97.03702773 66.78554412 92.93606499 61.88720703 88.74511719 C57.49682966 85.0054115 52.99161693 81.43307089 48.44140625 77.890625 C43.91296056 74.35963431 39.44782199 70.75688924 35 67.125 C29.4586371 62.60354023 23.87924888 58.13819844 18.24072266 53.73852539 C15.11736632 51.29876651 12.01448569 48.83700786 8.93359375 46.34375 C8.25627197 45.79662354 7.5789502 45.24949707 6.88110352 44.68579102 C5.57569202 43.62948323 4.27266064 42.57022496 2.97241211 41.50756836 C-1.31812839 38.03972717 -4.66140729 35.35023847 -10.375 35.25 C-11.46941406 35.20746094 -11.46941406 35.20746094 -12.5859375 35.1640625 C-18.25131084 36.24580045 -22.87210757 40.98255587 -27.3125 44.5 Z " fill="#FD8F33" transform="translate(522,222.375)"/>
<path d="M0 0 C12.64167454 -0.25760553 24.95181204 -0.13723935 37.43505859 2.05761719 C38.16998535 2.18652344 38.90491211 2.31542969 39.66210938 2.44824219 C71.16432413 8.12929281 98.34183178 21.37665498 123.43505859 41.05761719 C124.43794922 41.82074219 125.44083984 42.58386719 126.47412109 43.37011719 C136.00771649 50.81588035 136.00771649 50.81588035 138.43505859 57.05761719 C139.08081354 62.31590747 138.24971177 65.59299492 135.43505859 70.05761719 C131.2932229 74.73045746 128.78005231 76.83068231 122.56005859 77.43261719 C115.99671397 77.72491189 110.80279297 71.81568378 105.99755859 67.93261719 C72.26877947 41.1792558 32.52936127 28.92576157 -10.63525391 33.37402344 C-16.38115893 34.21708358 -21.96047086 35.55579811 -27.56494141 37.05761719 C-29.00756534 37.41212746 -30.45027268 37.76629856 -31.89306641 38.12011719 C-54.50002167 43.946973 -73.67241851 56.53974188 -91.76806641 70.90136719 C-100.70691869 77.79277286 -100.70691869 77.79277286 -106.61572266 77.43261719 C-111.58782587 76.47606026 -114.5856568 73.3822435 -117.43994141 69.43261719 C-120.10309292 64.83653313 -120.58183191 60.25223283 -119.56494141 55.05761719 C-117.47762764 50.51842457 -114.22414751 47.87448598 -110.31494141 44.93261719 C-109.69796387 44.46033691 -109.08098633 43.98805664 -108.4453125 43.50146484 C-107.14377975 42.50930475 -105.8388571 41.52157748 -104.53076172 40.53808594 C-102.633645 39.10935819 -100.7512215 37.66294436 -98.86962891 36.21386719 C-71.09162411 15.05865347 -35.09619014 0.78837815 0 0 Z " fill="#FC8F33" transform="translate(502.56494140625,333.9423828125)"/>
<path d="M0 0 C0.62648438 0.47308594 1.25296875 0.94617188 1.8984375 1.43359375 C5.10544947 3.94444946 7.52194821 6.1744542 9 10 C9.50650069 16.28302042 7.60301887 20.58252844 3.59765625 25.3359375 C0.31406267 28.75601297 -2.43751545 30.17961979 -7.125 30.6875 C-12.62089219 30.49704829 -15.86097613 27.59303411 -20.0546875 24.29296875 C-41.28877762 7.76191981 -67.11183879 2.45000962 -93.51123047 5.26806641 C-111.29955708 7.87024868 -126.19888159 16.7671106 -140.171875 27.69921875 C-144.06049814 30.46612368 -148.39776398 30.60371537 -153 30 C-158.43804793 27.44091862 -161.76075404 23.5083561 -164 18 C-164.73489347 14.46919601 -165.02160616 11.47346096 -164 8 C-160.45878376 2.71551053 -155.80712904 -0.95720803 -150.5625 -4.4375 C-149.86366699 -4.90631592 -149.16483398 -5.37513184 -148.44482422 -5.8581543 C-102.19282109 -36.39239516 -43.70374991 -34.16702098 0 0 Z " fill="#FC8F33" transform="translate(590,426)"/>
<path d="M0 0 C9.04417911 6.50798074 14.95079407 15.34644283 17.3125 26.3125 C18.5739994 41.3895928 17.16780398 54.27218637 7.3125 66.3125 C-0.03069864 74.1524901 -8.7481032 78.29599993 -19.47436523 78.65649414 C-32.04527279 78.83261165 -41.23081372 75.81808424 -50.4921875 66.9140625 C-54.20385819 62.5155346 -56.56282276 57.63137106 -58.6875 52.3125 C-59.06132813 51.40242187 -59.43515625 50.49234375 -59.8203125 49.5546875 C-63.09421718 37.31441325 -61.40024109 23.8144479 -55.33203125 12.8671875 C-49.74868804 3.79612588 -41.94290233 -1.92411269 -31.83203125 -5.30859375 C-20.71561175 -7.27269701 -9.62470106 -5.93658032 0 0 Z " fill="#FB9136" transform="translate(699.6875,670.6875)"/>
<path d="M0 0 C6.6 0 13.2 0 20 0 C25.8506969 12.07758073 31.69361101 24.15848528 37.25 36.375 C37.63212646 37.20547852 38.01425293 38.03595703 38.40795898 38.89160156 C38.75286377 39.65698242 39.09776855 40.42236328 39.453125 41.2109375 C39.75379883 41.87399902 40.05447266 42.53706055 40.36425781 43.22021484 C41 45 41 45 41 48 C41.66 48 42.32 48 43 48 C43.10940918 47.30052246 43.21881836 46.60104492 43.33154297 45.88037109 C44.08524456 42.63268248 45.27550057 39.93075832 46.6953125 36.9140625 C47.24356689 35.74198242 47.79182129 34.56990234 48.35668945 33.36230469 C48.94601501 32.1164838 49.5354537 30.87071644 50.125 29.625 C50.71950971 28.35864035 51.31350302 27.09203814 51.90698242 25.82519531 C53.07143246 23.34145167 54.23865914 20.85904847 55.40869141 18.37792969 C57.0644772 14.86313185 58.70924827 11.34338275 60.34838867 7.82080078 C61.56273077 5.21253295 62.7817667 2.60645265 64 0 C70.6 0 77.2 0 84 0 C84 26.73 84 53.46 84 81 C78.39 81 72.78 81 67 81 C66.67 63.84 66.34 46.68 66 29 C63.81375 33.681875 61.6275 38.36375 59.375 43.1875 C58.69872559 44.63535889 58.02245117 46.08321777 57.32568359 47.57495117 C53.52954294 55.7070912 49.75291863 63.84779776 46 72 C43.03 72 40.06 72 37 72 C36.45996338 70.82904785 35.91992676 69.6580957 35.36352539 68.45166016 C33.36417106 64.11671426 31.36440021 59.78196061 29.36450195 55.44726562 C28.49817685 53.5693886 27.63196547 51.69145911 26.76586914 49.81347656 C25.52259574 47.11770116 24.27891657 44.42211328 23.03515625 41.7265625 C22.64658951 40.88380768 22.25802277 40.04105286 21.85768127 39.17276001 C21.49738327 38.39210175 21.13708527 37.61144348 20.76586914 36.80712891 C20.44832169 36.11873932 20.13077423 35.43034973 19.80360413 34.72109985 C19.22045127 33.47214622 18.61643369 32.23286737 18 31 C17.67 47.5 17.34 64 17 81 C11.39 81 5.78 81 0 81 C0 54.27 0 27.54 0 0 Z " fill="#F9933A" transform="translate(727,666)"/>
<path d="M0 0 C6.6 0 13.2 0 20 0 C20.83402344 1.80082031 21.66804688 3.60164062 22.52734375 5.45703125 C23.37144419 7.27777683 24.21555117 9.09851938 25.05981445 10.91918945 C25.90305245 12.73819103 26.74548864 14.55756423 27.58789062 16.37695312 C32.33271903 26.61273692 37.15876874 36.80950769 42 47 C44.49164754 41.75368066 46.98182757 36.50666816 49.47070312 31.2590332 C50.31601197 29.47727057 51.16170802 27.69569159 52.0078125 25.91430664 C53.23020871 23.34049953 54.45116924 20.76601546 55.671875 18.19140625 C56.04495789 17.40665421 56.41804077 16.62190216 56.8024292 15.81336975 C57.16250061 15.05326096 57.52257202 14.29315216 57.89355469 13.51000977 C58.20444031 12.85492935 58.51532593 12.19984894 58.83563232 11.5249176 C60.59852101 7.70211423 62.29027755 3.84687552 64 0 C70.6 0 77.2 0 84 0 C84 26.73 84 53.46 84 81 C78.39 81 72.78 81 67 81 C66.67 63.84 66.34 46.68 66 29 C63.999375 33.310625 61.99875 37.62125 59.9375 42.0625 C55.3027516 52.04685761 50.66332998 62.02895263 46 72 C43.03 72 40.06 72 37 72 C34.79076117 67.34278944 32.58552763 62.68371031 30.38378906 58.02294922 C29.63615646 56.44171592 28.88748189 54.86097479 28.13769531 53.28076172 C27.05250896 50.99318888 25.97123654 48.70379932 24.890625 46.4140625 C24.56128967 45.72196686 24.23195435 45.02987122 23.89263916 44.31680298 C21.3602498 38.93637209 19.2200852 33.55021299 17 28 C16.67 45.49 16.34 62.98 16 81 C10.72 81 5.44 81 0 81 C0 54.27 0 27.54 0 0 Z " fill="#FC9236" transform="translate(228,666)"/>
<path d="M0 0 C44.79346447 0 44.79346447 0 53.56640625 8.2890625 C58.88534143 14.63700149 60.57868603 21.85388129 60 30 C58.97101783 36.83817262 56.58899616 42.65757491 51.375 47.375 C49 49 49 49 47 50 C47.61318802 53.98912624 48.87948909 57.0870009 50.72265625 60.66796875 C51.26083984 61.72564453 51.79902344 62.78332031 52.35351562 63.87304688 C52.91748047 64.96681641 53.48144531 66.06058594 54.0625 67.1875 C55.18194311 69.36666565 56.2980122 71.54756897 57.41015625 73.73046875 C57.90652588 74.69364014 58.40289551 75.65681152 58.91430664 76.64916992 C60 79 60 79 60 81 C54.06 81 48.12 81 42 81 C37.33333333 71.66666667 32.66666667 62.33333333 28 53 C24.37 52.67 20.74 52.34 17 52 C17 61.9 17 71.8 17 82 C11.39 82 5.78 82 0 82 C0 54.94 0 27.88 0 0 Z " fill="#FC9034" transform="translate(405,666)"/>
<path d="M0 0 C0.79075928 0.00523682 1.58151855 0.01047363 2.39624023 0.01586914 C3.67724609 0.02070312 3.67724609 0.02070312 4.98413086 0.02563477 C5.88196289 0.03401367 6.77979492 0.04239258 7.70483398 0.05102539 C8.6065332 0.05553711 9.50823242 0.06004883 10.43725586 0.06469727 C12.67234712 0.07652315 14.90730835 0.09300319 17.14233398 0.11352539 C17.60736328 1.40371582 17.60736328 1.40371582 18.08178711 2.7199707 C19.60135027 6.93471249 21.12171707 11.1491637 22.64233398 15.36352539 C22.92434662 16.14531158 23.20635925 16.92709778 23.49691772 17.73257446 C27.17116778 27.9162466 30.86018363 38.09440943 34.56811523 48.26586914 C35.11730118 49.77302994 35.11730118 49.77302994 35.67758179 51.31063843 C37.48675073 56.27528914 39.29764264 61.23930087 41.11108398 66.20239258 C41.7739105 68.02040234 42.4366741 69.83843503 43.09936523 71.65649414 C43.40812088 72.49961655 43.71687653 73.34273895 44.0349884 74.21141052 C46.14233398 80.00001721 46.14233398 80.00001721 46.14233398 81.11352539 C39.87233398 81.11352539 33.60233398 81.11352539 27.14233398 81.11352539 C24.7992178 75.52028031 23.14824588 71.14899675 22.14233398 65.11352539 C12.24233398 65.11352539 2.34233398 65.11352539 -7.85766602 65.11352539 C-8.51766602 68.08352539 -9.17766602 71.05352539 -9.85766602 74.11352539 C-10.84766602 76.42352539 -11.83766602 78.73352539 -12.85766602 81.11352539 C-18.79766602 81.11352539 -24.73766602 81.11352539 -30.85766602 81.11352539 C-24.44016381 62.21349521 -17.92442542 43.35037426 -11.25195312 24.53866577 C-10.52964102 22.502079 -9.80828966 20.46515123 -9.08789062 18.42788696 C-8.07281473 15.55897701 -7.05380043 12.69149952 -6.03344727 9.82446289 C-5.72667557 8.95628433 -5.41990387 8.08810577 -5.10383606 7.19361877 C-2.5901897 0.15829126 -2.5901897 0.15829126 0 0 Z " fill="#FB9136" transform="translate(350.857666015625,665.886474609375)"/>
<path d="M0 0 C5.61 0 11.22 0 17 0 C17 10.56 17 21.12 17 32 C26.9 32 36.8 32 47 32 C47 21.44 47 10.88 47 0 C52.61 0 58.22 0 64 0 C64 27.06 64 54.12 64 82 C58.39 82 52.78 82 47 82 C47 70.45 47 58.9 47 47 C37.43 47 27.86 47 18 47 C18.01160156 49.44277344 18.02320313 51.88554688 18.03515625 54.40234375 C18.04294684 56.75870636 18.04902359 59.11506756 18.05493164 61.47143555 C18.05997174 63.11369464 18.06680378 64.75594923 18.07543945 66.39819336 C18.08751926 68.75375479 18.09323139 71.10925709 18.09765625 73.46484375 C18.10281754 74.20339096 18.10797882 74.94193817 18.11329651 75.7028656 C18.1134925 77.46898088 18.06194719 79.23497146 18 81 C17.67 81.33 17.34 81.66 17 82 C11.39 82 5.78 82 0 82 C0 54.94 0 27.88 0 0 Z " fill="#FC8E32" transform="translate(564,666)"/>
<path d="M0 0 C1 1 1 1 1.0625 4.6953125 C1.04437984 6.50523753 1.02321125 8.3151331 1 10.125 C0.91178319 22.84025013 1.20210545 35.53912195 1.5 48.25 C1.90014407 65.50487284 2.15012553 82.74018321 2 100 C-2.65863435 100.62276045 -6.94819574 100.98641615 -11.65625 100.90234375 C-15.8027501 101.07511459 -19.86483603 101.85812741 -23.94921875 102.5625 C-26.69655811 102.95648465 -29.23317382 103.03276081 -32 103 C-32.02313993 93.77729522 -32.04092354 84.55460039 -32.05181217 75.33187294 C-32.05703738 71.04968874 -32.06412848 66.76752436 -32.07543945 62.48535156 C-32.08628117 58.35512471 -32.09227957 54.22491695 -32.09487724 50.09467697 C-32.09672917 48.5165718 -32.10034535 46.93846771 -32.10573006 45.36037064 C-32.11295752 43.15510016 -32.11399022 40.94990926 -32.11352539 38.74462891 C-32.115746 37.48776276 -32.11796661 36.23089661 -32.12025452 34.9359436 C-32 32 -32 32 -31 30 C-31.11594559 28.1419719 -31.29208228 26.28749514 -31.5 24.4375 C-32.20693647 16.77137078 -31.78266278 10.23492323 -29 3 C-26.0703125 3.04882812 -26.0703125 3.04882812 -23.140625 3.09765625 C-20.94452822 2.99746935 -19.11231797 2.59408943 -17 2 C-11.20195215 0.50689369 -6.00174028 -0.3215218 0 0 Z " fill="#241106" transform="translate(825,269)"/>
<path d="M0 0 C13.2 0 26.4 0 40 0 C40.28967473 16.06134987 40.28967473 16.06134987 40.40429688 22.91015625 C40.48252483 27.5825798 40.56191177 32.25496342 40.64819336 36.92724609 C40.71768593 40.69431505 40.78198657 44.46144019 40.84269524 48.22866058 C40.86676251 49.66558802 40.89269737 51.10248543 40.92053413 52.53934479 C40.95921614 54.55250801 40.99063068 56.5658069 41.02172852 58.57910156 C41.04171402 59.72493713 41.06169952 60.87077271 41.08229065 62.05133057 C41.01118542 64.59919966 40.63229756 66.56246205 40 69 C40.165 70.0725 40.33 71.145 40.5 72.25 C41.0745657 76.55924279 40.80796987 79.73979523 40 84 C39.01 84.495 39.01 84.495 38 85 C35.375 83.5625 35.375 83.5625 33 82 C32.67 82.66 32.34 83.32 32 84 C28.37 82.68 24.74 81.36 21 80 C21 79.67 21 79.34 21 79 C19.73542969 78.98582031 18.47085937 78.97164062 17.16796875 78.95703125 C15.50777588 78.91013315 13.84762073 78.86188574 12.1875 78.8125 C11.35412109 78.80669922 10.52074219 78.80089844 9.66210938 78.79492188 C3.53586882 78.57349149 3.53586882 78.57349149 0.94140625 75.796875 C-0.06200513 72.81578557 -0.33727936 70.57519284 -0.25 67.4375 C-0.23453125 66.50808594 -0.2190625 65.57867188 -0.203125 64.62109375 C0 62 0 62 0.703125 59.84765625 C0.85007812 58.93306641 0.85007812 58.93306641 1 58 C0.01199072 56.98815136 -0.98854347 55.98841069 -2 55 C-2.07421875 53.0546875 -2.07421875 53.0546875 -1.6875 50.875 C-0.9080189 45.62420973 -0.18364318 40.05854232 -1.5703125 34.86328125 C-2 33 -2 33 -1 31 C-0.92690714 29.18364237 -0.91638436 27.36458008 -0.9375 25.546875 C-0.94523437 24.45246094 -0.95296875 23.35804688 -0.9609375 22.23046875 C-0.98680382 19.92577928 -1.0128431 17.62109173 -1.0390625 15.31640625 C-1.04679687 14.21683594 -1.05453125 13.11726562 -1.0625 11.984375 C-1.07410156 10.98116211 -1.08570313 9.97794922 -1.09765625 8.94433594 C-1 6 -1 6 0 0 Z " fill="#1D0C03" transform="translate(421,587)"/>
<path d="M0 0 C1.14421629 4.63154556 1.22100877 9.15622613 1.31640625 13.8984375 C1.33727798 14.78591171 1.35814972 15.67338593 1.37965393 16.5877533 C1.44615115 19.51674474 1.50496343 22.4458196 1.5625 25.375 C1.58334656 26.37622894 1.60419312 27.37745789 1.62567139 28.4090271 C1.96064887 44.70970334 2.10585685 61.00854658 2.125 77.3125 C2.1275882 78.3513031 2.13017639 79.3901062 2.13284302 80.46038818 C2.13863046 83.38638874 2.1371623 86.31228022 2.1328125 89.23828125 C2.13578087 90.55372169 2.13578087 90.55372169 2.1388092 91.89573669 C2.11537729 97.88462271 2.11537729 97.88462271 1 99 C-2.86829589 99.06085815 -6.72406153 99.02067086 -10.59179688 98.9609375 C-15.84019642 98.91184881 -20.80282744 99.27137121 -26 100 C-26.99 100 -27.98 100 -29 100 C-30.91618383 94.97001744 -31.65949594 90.85781575 -30.4375 85.5625 C-29.83955769 82.84805794 -29.83955769 82.84805794 -30.5 79.5 C-30.97357916 76.18494591 -30.71137373 74.20118177 -30 71 C-30.33 70.01 -30.66 69.02 -31 68 C-31.09916351 65.94053804 -31.13827302 63.87799821 -31.14526367 61.81616211 C-31.15164352 60.54151596 -31.15802338 59.26686981 -31.16459656 57.95359802 C-31.16612488 56.56151365 -31.16723903 55.16942877 -31.16796875 53.77734375 C-31.17118161 52.35152655 -31.1745457 50.92570969 -31.17805481 49.49989319 C-31.18404063 46.51318598 -31.18589517 43.5265077 -31.18530273 40.53979492 C-31.18520091 36.7072931 -31.19887668 32.87497569 -31.21607494 29.04251766 C-31.22717397 26.09919883 -31.22922263 23.15592497 -31.22869301 20.21258736 C-31.22987539 18.79915288 -31.23431157 17.38571732 -31.24202538 15.97230339 C-31.25178654 13.99970751 -31.24769305 12.02705762 -31.24291992 10.05444336 C-31.24434494 8.93098007 -31.24576996 7.80751678 -31.24723816 6.65000916 C-31 4 -31 4 -29 2 C-27.33394172 1.9549714 -25.66621616 1.96125079 -24 2 C-22.33142033 1.67637868 -20.66513307 1.34091165 -19 1 C-16.48232871 0.60432722 -13.96110627 0.23086106 -11.4375 -0.125 C-9.48650391 -0.40730469 -9.48650391 -0.40730469 -7.49609375 -0.6953125 C-4.54375215 -0.95261154 -2.73754903 -0.98913985 0 0 Z " fill="#271307" transform="translate(780,275)"/>
<path d="M0 0 C4.52058978 3.56593107 7.438523 7.21958112 8.40625 13.0546875 C8.66459865 15.25581798 8.84430152 17.46587381 9.01171875 19.67578125 C3.40171875 19.67578125 -2.20828125 19.67578125 -7.98828125 19.67578125 C-8.64828125 17.69578125 -9.30828125 15.71578125 -9.98828125 13.67578125 C-14.4414883 10.70697655 -18.76690713 11.05046698 -23.98828125 11.67578125 C-26.80961495 13.07665874 -26.80961495 13.07665874 -27.98828125 15.67578125 C-28.65494792 18.67578125 -28.65494792 18.67578125 -27.98828125 21.67578125 C-25.28948008 24.92171979 -22.90303503 26.36369753 -18.92578125 27.67578125 C-17.9615625 28.00578125 -16.99734375 28.33578125 -16.00390625 28.67578125 C-15.00875 29.00578125 -14.01359375 29.33578125 -12.98828125 29.67578125 C-3.81607181 32.7817146 3.1538075 35.70251316 9.01171875 43.67578125 C12.0473125 50.06427821 12.08821498 57.29920147 9.82421875 63.98828125 C6.26064787 71.99814241 1.01988832 75.53507724 -6.98828125 78.67578125 C-18.08576988 81.53148679 -29.22022858 80.18299092 -39.08203125 74.4609375 C-44.45729051 70.5319874 -46.50091614 65.02248826 -47.98828125 58.67578125 C-47.98828125 57.02578125 -47.98828125 55.37578125 -47.98828125 53.67578125 C-42.37828125 53.67578125 -36.76828125 53.67578125 -30.98828125 53.67578125 C-30.07682292 55.69401042 -29.16536458 57.71223958 -28.25390625 59.73046875 C-26.71968704 62.0886205 -25.62145589 62.73708097 -22.98828125 63.67578125 C-18.63306425 64.27569486 -15.00045063 64.13969222 -10.98828125 62.30078125 C-8.1456015 59.99110396 -8.02449601 59.00171407 -7.61328125 55.30078125 C-7.61770126 51.65541088 -7.61770126 51.65541088 -9.90234375 49.66015625 C-13.97424628 47.0417683 -18.14540365 45.75358718 -22.73828125 44.30078125 C-32.33116074 41.09482162 -41.07426269 38.09431682 -45.98828125 28.67578125 C-48.14984919 21.5734866 -47.71160936 14.41145161 -44.37890625 7.78125 C-40.86435912 2.46006769 -35.64021729 -1.93803221 -29.515625 -3.890625 C-19.70514771 -5.5737208 -8.50596265 -5.66507139 0 0 Z " fill="#FB9035" transform="translate(206.98828125,669.32421875)"/>
<path d="M0 0 C16.17 0 32.34 0 49 0 C49 4.95 49 9.9 49 15 C38.11 15 27.22 15 16 15 C16 20.94 16 26.88 16 33 C25.57 33 35.14 33 45 33 C45 37.62 45 42.24 45 47 C35.43 47 25.86 47 16 47 C16 53.27 16 59.54 16 66 C27.22 66 38.44 66 50 66 C50 70.95 50 75.9 50 81 C33.5 81 17 81 0 81 C0 54.27 0 27.54 0 0 Z " fill="#FC9237" transform="translate(826,666)"/>
<path d="M0 0 C5.81537189 3.87691459 9.48229145 9.17031154 11 16 C11.8969905 25.4999448 10.41720524 32.60894305 4.75 40.3125 C-0.42500498 45.36989123 -6.82429757 48.10421833 -14.0625 48.375 C-21.09139074 48.29132273 -26.59116919 46.02767462 -31.8515625 41.35546875 C-38.41191085 34.19725615 -39.52969057 27.85349123 -39.27734375 18.3046875 C-38.62925578 10.58239991 -34.70750725 5.11898996 -29 0 C-19.77853485 -6.21143973 -9.34112038 -5.47257558 0 0 Z " fill="#FC8F34" transform="translate(526,467)"/>
<path d="M0 0 C20.46 0 40.92 0 62 0 C62 4.95 62 9.9 62 15 C54.41 15 46.82 15 39 15 C39 36.78 39 58.56 39 81 C33.39 81 27.78 81 22 81 C22 59.22 22 37.44 22 15 C14.74 15 7.48 15 0 15 C0 10.05 0 5.1 0 0 Z " fill="#FC9237" transform="translate(470,666)"/>
<path d="M0 0 C5.81666788 3.3489906 10.19356037 8.50521104 12.2734375 14.9453125 C13.95919013 23.76096969 13.93236676 32.49105955 9.3046875 40.34765625 C5.47017605 45.50208748 1.16539155 49.15442169 -5.25 50.4375 C-11.81070311 51.22086753 -16.80307693 50.25990216 -22.25 46.4375 C-28.69682814 40.2837095 -31.45012667 32.72643355 -31.75 23.875 C-31.4546561 15.21836847 -28.42486381 8.472026 -22.25 2.4375 C-15.49479512 -2.41355317 -7.66996877 -3.38122669 0 0 Z " fill="#030101" transform="translate(687.25,682.5625)"/>
<path d="M0 0 C0.79921875 0.00902344 1.5984375 0.01804687 2.421875 0.02734375 C3.02515625 0.03894531 3.6284375 0.05054688 4.25 0.0625 C4.2792067 3.60414915 4.29686814 7.14576697 4.3125 10.6875 C4.32087891 11.68652344 4.32925781 12.68554688 4.33789062 13.71484375 C4.3541848 18.63568585 4.17759686 23.21226894 3.25 28.0625 C3.5284375 29.0215625 3.5284375 29.0215625 3.8125 30 C4.25 32.0625 4.25 32.0625 3.25 35.375 C1.99012639 39.0427249 1.99012639 39.0427249 2.8125 42.8125 C3.25 46.0625 3.25 46.0625 2.16015625 47.7578125 C-0.56825475 49.62138975 -2.61077767 49.32121513 -5.875 49.1875 C-7.83251052 49.11708595 -9.79123218 49.06834707 -11.75 49.0625 C-12.08 49.3925 -12.41 49.7225 -12.75 50.0625 C-15.27596259 50.29903523 -17.78107207 50.48423692 -20.3125 50.625 C-21.37887695 50.68977539 -21.37887695 50.68977539 -22.46679688 50.75585938 C-24.22761912 50.86221777 -25.9887832 50.96288846 -27.75 51.0625 C-29.84872094 47.9144186 -29.99939115 47.19327319 -29.99291992 43.60693359 C-29.99753487 42.26071426 -29.99753487 42.26071426 -30.00224304 40.88729858 C-29.99505753 39.92159943 -29.98787201 38.95590027 -29.98046875 37.9609375 C-29.98001053 36.96873199 -29.97955231 35.97652649 -29.9790802 34.95425415 C-29.97605937 32.85783695 -29.96817811 30.76142196 -29.95581055 28.66503906 C-29.93753279 25.44327922 -29.93530101 22.22180632 -29.93554688 19 C-29.93063253 16.96614333 -29.92480458 14.93228862 -29.91796875 12.8984375 C-29.91685593 11.92868988 -29.9157431 10.95894226 -29.91459656 9.95980835 C-29.90821671 9.06863312 -29.90183685 8.17745789 -29.89526367 7.25927734 C-29.89145187 6.4711264 -29.88764008 5.68297546 -29.88371277 4.87094116 C-29.75 3.0625 -29.75 3.0625 -28.75 2.0625 C-23.07364195 0.90142676 -17.51696684 1.01635256 -11.73828125 1.125 C-8.90583857 1.18309806 -8.90583857 1.18309806 -6.86010742 0.5625 C-4.50335746 0.00405687 -2.41843559 -0.03556523 0 0 Z M-10.75 46.0625 C-9.75 48.0625 -9.75 48.0625 -9.75 48.0625 Z " fill="#241005" transform="translate(822.75,372.9375)"/>
<path d="M0 0 C0 15.84 0 31.68 0 48 C-2.83867451 48.94622484 -4.8657615 49.18957142 -7.82421875 49.31640625 C-8.77103516 49.35830078 -9.71785156 49.40019531 -10.69335938 49.44335938 C-11.68142578 49.48267578 -12.66949219 49.52199219 -13.6875 49.5625 C-14.65623047 49.60568359 -15.62496094 49.64886719 -16.62304688 49.69335938 C-22.08744207 49.92612266 -27.53086811 50.04541391 -33 50 C-33.69283034 40.56018656 -34.10519976 31.1544903 -34.125 21.6875 C-34.12951172 20.78684814 -34.13402344 19.88619629 -34.13867188 18.95825195 C-34.13673828 18.109646 -34.13480469 17.26104004 -34.1328125 16.38671875 C-34.13168457 15.63608154 -34.13055664 14.88544434 -34.12939453 14.11206055 C-33.99750177 11.95922233 -33.54362401 10.08157115 -33 8 C-32.96213099 6.33376361 -32.95372155 4.66602403 -33 3 C-31.63875 3.0309375 -31.63875 3.0309375 -30.25 3.0625 C-27.22500347 3.12561722 -27.22500347 3.12561722 -25.25 2.5625 C-22.11085193 1.77771298 -18.9552584 1.37546547 -15.75 0.9375 C-13.85507812 0.67259766 -13.85507812 0.67259766 -11.921875 0.40234375 C-7.96641464 -0.00344551 -3.97622076 0 0 0 Z " fill="#251105" transform="translate(782,376)"/>
<path d="M0 0 C2.3802448 3.57036719 2.36306405 6.22207403 2.44921875 10.35546875 C2.47140976 11.10918259 2.49360077 11.86289642 2.51646423 12.63945007 C2.58534152 15.15532463 2.63756861 17.67118203 2.6875 20.1875 C2.70746033 21.05304504 2.72742065 21.91859009 2.74798584 22.81036377 C3.09303065 38.17133846 2.94927393 53.51486572 2.625 68.875 C2.60376068 69.90974457 2.58252136 70.94448914 2.56063843 72.0105896 C2.49691052 74.98379968 2.42605338 77.95672914 2.3515625 80.9296875 C2.33165756 81.80114914 2.31175262 82.67261078 2.29124451 83.57048035 C2.15000515 88.65685074 1.78583281 93.67262039 1.21592712 98.72937012 C0.87044481 102.3623665 0.89253308 105.97922011 0.9375 109.625 C0.94201172 110.34300781 0.94652344 111.06101562 0.95117188 111.80078125 C0.96272595 113.53389208 0.98064842 115.2669587 1 117 C-0.670625 117.2165625 -0.670625 117.2165625 -2.375 117.4375 C-5.82142047 117.78372035 -5.82142047 117.78372035 -8 119 C-9.66666667 118.66666667 -11.33333333 118.33333333 -13 118 C-13.99 118.495 -13.99 118.495 -15 119 C-17.71262116 119.2322646 -20.40773126 119.41936235 -23.125 119.5625 C-23.87910156 119.60568359 -24.63320313 119.64886719 -25.41015625 119.69335938 C-27.27321888 119.7994832 -29.13658524 119.90025001 -31 120 C-33.40083162 115.7244154 -33.38567358 112.85948709 -33 108 C-31.6875 106.1875 -31.6875 106.1875 -30 105 C-29.566875 104.505 -29.13375 104.01 -28.6875 103.5 C-27 102 -27 102 -24.0625 100.8125 C-19.87898754 98.33654365 -18.45872105 95.56464958 -17 91 C-15.92980664 85.35418399 -17.42631113 81.72319388 -20.17578125 76.83203125 C-21.31884518 74.29128725 -20.96056972 72.56151925 -20 70 C-20.66 70 -21.32 70 -22 70 C-21.505 69.01 -21.505 69.01 -21 68 C-18.56640625 67.62109375 -18.56640625 67.62109375 -15.5625 67.4375 C-11.63464783 67.26890634 -11.63464783 67.26890634 -8 66 C-5.6670134 65.95977609 -3.33293334 65.95679753 -1 66 C-0.82958635 59.58135755 -0.6701463 53.16250517 -0.51782227 46.7434082 C-0.46492511 44.56626418 -0.40964734 42.3891765 -0.35180664 40.2121582 C-0.05608022 29.0234132 0.21045637 17.96538596 -0.86352539 6.81274414 C-0.98819825 4.24323425 -0.79617765 2.42453915 0 0 Z " fill="#1C0B03" transform="translate(740,309)"/>
<path d="M0 0 C5.61 0 11.22 0 17 0 C22.42146576 5.42146576 24.37812972 11.63920411 26 19 C26.33 19.99 26.66 20.98 27 22 C26.07796291 24.36522558 25.08301035 26.70401807 24 29 C23.34 29 22.68 29 22 29 C22 29.99 22 30.98 22 32 C20.68 31.67 19.36 31.34 18 31 C17.67 29.68 17.34 28.36 17 27 C15.68 26.67 14.36 26.34 13 26 C13 43.49 13 60.98 13 79 C8.71 79 4.42 79 0 79 C0 52.93 0 26.86 0 0 Z " fill="#FD8C30" transform="translate(729,667)"/>
<path d="M0 0 C4.021875 -0.0928125 4.021875 -0.0928125 8.125 -0.1875 C8.95789551 -0.21481201 9.79079102 -0.24212402 10.64892578 -0.27026367 C15.50273718 -0.3241177 18.81697656 0.27277043 23 3 C25.21477492 6.32216238 25.29667707 7.55033323 25.3125 11.4375 C25.33763672 12.85869141 25.33763672 12.85869141 25.36328125 14.30859375 C24.94224688 17.42786993 24.17955126 18.75919671 22 21 C19.17588235 21.94137255 17.47081968 22.11725382 14.55078125 22.09765625 C13.78677002 22.09515869 13.02275879 22.09266113 12.2355957 22.09008789 C11.27097412 22.08098389 10.30635254 22.07187988 9.3125 22.0625 C4.7028125 22.0315625 4.7028125 22.0315625 0 22 C0 14.74 0 7.48 0 0 Z " fill="#090302" transform="translate(422,681)"/>
<path d="M0 0 C4.5754653 9.15093061 2.14546848 24.94052175 2.1328125 35.01171875 C2.13348741 36.91648877 2.134459 38.82125871 2.13571167 40.72602844 C2.13717588 44.68869865 2.13507283 48.65134613 2.13037109 52.61401367 C2.12463144 57.69945137 2.12798739 62.78483678 2.13394356 67.87027264 C2.13754725 71.78978372 2.13641221 75.70928227 2.13381577 79.62879372 C2.13314818 81.50554218 2.13396906 83.38229178 2.13629532 85.25903893 C2.1388233 87.8676293 2.13498115 90.47613292 2.12939453 93.0847168 C2.13141876 93.86126617 2.13344299 94.63781555 2.13552856 95.43789673 C2.11427344 100.77145312 2.11427344 100.77145312 1 103 C-1.22143555 103.48657227 -1.22143555 103.48657227 -4.13671875 103.81640625 C-5.18923828 103.94080078 -6.24175781 104.06519531 -7.32617188 104.19335938 C-8.43541016 104.31517578 -9.54464844 104.43699219 -10.6875 104.5625 C-12.85818688 104.81281576 -15.02876359 105.06408919 -17.19921875 105.31640625 C-18.16690186 105.42412354 -19.13458496 105.53184082 -20.1315918 105.64282227 C-22.15582777 105.89488263 -24.17125942 106.22326429 -26.17504883 106.60522461 C-29 107 -29 107 -32 106 C-31.79375 107.19625 -31.5875 108.3925 -31.375 109.625 C-30.86418162 113.5576018 -31.43265283 116.3121243 -33 120 C-33.33 120 -33.66 120 -34 120 C-34.02707139 117.75006641 -34.04642829 115.50003905 -34.0625 113.25 C-34.07410156 111.99703125 -34.08570313 110.7440625 -34.09765625 109.453125 C-34.01932897 106.68347238 -33.68235021 104.63104405 -33 102 C-33.33 101.34 -33.66 100.68 -34 100 C-33.91075148 97.2764805 -33.76646668 94.58986689 -33.5625 91.875 C-33.51029297 91.12089844 -33.45808594 90.36679687 -33.40429688 89.58984375 C-33.27454996 87.7262063 -33.13792512 85.86305004 -33 84 C-32.01 84 -31.02 84 -30 84 C-30.33 84.99 -30.66 85.98 -31 87 C-30.67 87.99 -30.34 88.98 -30 90 C-30.66 90 -31.32 90 -32 90 C-31.34 93.3 -30.68 96.6 -30 100 C-26.23378344 100.94155414 -23.99586244 100.80510431 -20.23828125 100.26220703 C-16.33184381 99.80458118 -12.42763137 99.89592084 -8.5 99.9375 C-7.67757812 99.94201172 -6.85515625 99.94652344 -6.0078125 99.95117188 C-4.00517604 99.96281511 -2.00257773 99.98074444 0 100 C0.10487558 75.59948556 0.09209774 51.20849678 -0.4375 26.8125 C-0.45714813 25.84261139 -0.47679626 24.87272278 -0.49703979 23.8734436 C-0.55388318 21.13031928 -0.61736521 18.38744332 -0.68359375 15.64453125 C-0.70031128 14.83830322 -0.71702881 14.0320752 -0.73425293 13.20141602 C-0.83857838 9.29142461 -1.22707317 5.86463414 -2 2 C-12.395 2.99 -12.395 2.99 -23 4 C-23.33 3.34 -23.66 2.68 -24 2 C-23.0925 1.87625 -22.185 1.7525 -21.25 1.625 C-18.83193439 1.28943171 -16.4404065 0.896645 -14.0390625 0.453125 C-12.99492188 0.26234375 -11.95078125 0.0715625 -10.875 -0.125 C-9.88242187 -0.31320312 -8.88984375 -0.50140625 -7.8671875 -0.6953125 C-4.9304524 -1.00739062 -2.81524295 -0.87162326 0 0 Z M-33 97 C-32 99 -32 99 -32 99 Z " fill="#140801" transform="translate(781,273)"/>
<path d="M0 0 C2.62848694 4.98375149 4.28708067 10.31256886 6.125 15.625 C6.68380859 17.21828125 6.68380859 17.21828125 7.25390625 18.84375 C7.60582031 19.85695313 7.95773437 20.87015625 8.3203125 21.9140625 C8.64273926 22.8417041 8.96516602 23.7693457 9.29736328 24.72509766 C10 27 10 27 10 29 C3.73 29 -2.54 29 -9 29 C-6.74687782 18.86095017 -6.74687782 18.86095017 -5.52734375 15 C-5.26759766 14.17628906 -5.00785156 13.35257813 -4.74023438 12.50390625 C-4.47533203 11.67761719 -4.21042969 10.85132813 -3.9375 10 C-3.66873047 9.14277344 -3.39996094 8.28554688 -3.12304688 7.40234375 C-1.13001778 1.13001778 -1.13001778 1.13001778 0 0 Z " fill="#090403" transform="translate(358,687)"/>
<path d="M0 0 C5.61 0 11.22 0 17 0 C17 10.56 17 21.12 17 32 C16.67 32 16.34 32 16 32 C16 21.77 16 11.54 16 1 C11.38 1 6.76 1 2 1 C2 27.07 2 53.14 2 80 C6.62 80 11.24 80 16 80 C16 69.11 16 58.22 16 47 C16.33 47 16.66 47 17 47 C17 58.55 17 70.1 17 82 C11.39 82 5.78 82 0 82 C0 54.94 0 27.88 0 0 Z " fill="#E59945" transform="translate(564,666)"/>
<path d="M0 0 C37 0 37 0 44 2 C39.57864538 3.65800798 37.32072286 2.66509036 32 2 C17.15 1.505 17.15 1.505 2 1 C2 27.07 2 53.14 2 80 C6.62 80 11.24 80 16 80 C16 70.76 16 61.52 16 52 C16.33 52 16.66 52 17 52 C17 61.9 17 71.8 17 82 C11.39 82 5.78 82 0 82 C0 54.94 0 27.88 0 0 Z " fill="#E39950" transform="translate(405,666)"/>
<path d="M0 0 C0.66 0 1.32 0 2 0 C2 27.06 2 54.12 2 82 C-3.61 82 -9.22 82 -15 82 C-15 70.45 -15 58.9 -15 47 C-14.67 47 -14.34 47 -14 47 C-14 57.89 -14 68.78 -14 80 C-9.38 80 -4.76 80 0 80 C0 53.6 0 27.2 0 0 Z " fill="#DD984B" transform="translate(626,666)"/>
<path d="M0 0 C2 1 2 1 3.25 3.125 C4.24330623 6.93267389 3.14652011 9.29067024 2 13 C2.32174243 14.33617764 2.65609957 15.66935302 3 17 C2.91487336 18.60985907 2.76265624 20.21680307 2.56420898 21.81665039 C1.90751718 28.1874634 1.89950414 34.49354431 1.95540047 40.89330864 C1.97307413 42.98300249 1.98317542 45.07261717 1.99131775 47.16236877 C2.0155443 53.09456826 2.05157399 59.02665836 2.09594727 64.95874023 C2.12273251 68.60887528 2.13976659 72.25895141 2.15081596 75.90916634 C2.15700971 77.29305288 2.16699491 78.67692799 2.18089485 80.06075859 C2.20012298 81.98892261 2.20595083 83.91720619 2.21118164 85.84545898 C2.21863907 86.94035141 2.2260965 88.03524384 2.23377991 89.16331482 C2.00192654 91.97662339 1.45761906 93.61395485 0 96 C-0.88799331 74.86528683 -1.11220769 53.73630626 -1.12338257 32.58517838 C-1.12500253 30.55933402 -1.12856616 28.53350085 -1.13256836 26.50765991 C-1.13844376 22.67304883 -1.1369761 18.83851818 -1.1328125 15.00390625 C-1.13479645 13.83656952 -1.1367804 12.66923279 -1.13882446 11.46652222 C-1.13571259 10.39419342 -1.13260071 9.32186462 -1.12939453 8.21704102 C-1.12859894 7.27812515 -1.12780334 6.33920929 -1.12698364 5.37184143 C-1 3 -1 3 0 0 Z " fill="#100601" transform="translate(794,557)"/>
<path d="M0 0 C-0.33 1.32 -0.66 2.64 -1 4 C-8.45233704 5.34622863 -15.56881608 6.21819328 -23.1484375 5.97265625 C-26.49810797 6.00477638 -29.69032562 6.50352452 -33 7 C-33.0253261 13.35375112 -33.04285678 19.70748926 -33.05493164 26.0612793 C-33.05996472 28.22339362 -33.06679169 30.38550453 -33.07543945 32.54760742 C-33.08754979 35.65284059 -33.09323852 38.7580288 -33.09765625 41.86328125 C-33.10281754 42.83211746 -33.10797882 43.80095367 -33.11329651 44.79914856 C-33.11337204 45.6998558 -33.11344757 46.60056305 -33.11352539 47.52856445 C-33.115746 48.32132278 -33.11796661 49.11408112 -33.12025452 49.93086243 C-33.07865777 52.19844698 -33.07865777 52.19844698 -32 55 C-32.99 54.67 -33.98 54.34 -35 54 C-35.05064156 47.21902652 -35.08570883 40.43810167 -35.10986328 33.65698242 C-35.11993107 31.3493467 -35.13358623 29.04172375 -35.15087891 26.73413086 C-35.17509287 23.42037809 -35.18647526 20.10679374 -35.1953125 16.79296875 C-35.20563507 15.7585112 -35.21595764 14.72405365 -35.22659302 13.6582489 C-35.22674408 12.6974794 -35.22689514 11.7367099 -35.22705078 10.74682617 C-35.231492 9.90077316 -35.23593323 9.05472015 -35.24050903 8.18302917 C-35 6 -35 6 -33 3 C-30.41330281 2.26740394 -28.01449005 1.73762347 -25.375 1.3125 C-24.25266968 1.12143677 -24.25266968 1.12143677 -23.10766602 0.92651367 C-15.39500166 -0.27826187 -7.78226955 -0.28280118 0 0 Z " fill="#130801" transform="translate(827,369)"/>
<path d="M0 0 C1.15209202 20.44930863 1.12133003 40.86863642 1.06866455 61.34222412 C1.05825913 65.82840492 1.05383084 70.31459175 1.04882812 74.80078125 C1.0382445 83.53387018 1.02127875 92.2669306 1 101 C0.67 101 0.34 101 0 101 C-0.79106939 82.81812219 -1.20989861 64.63244005 -1.5625 46.4375 C-1.58464569 45.32451538 -1.60679138 44.21153076 -1.62960815 43.06481934 C-1.89955774 29.37478849 -2.06456418 15.69273088 -2 2 C-3.25119629 1.99170166 -4.50239258 1.98340332 -5.79150391 1.97485352 C-6.49530182 1.9701857 -7.19909973 1.96551788 -7.92422485 1.96070862 C-10.7980079 2.01510512 -13.5471533 2.43953728 -16.375 2.9375 C-17.90253906 3.19853516 -17.90253906 3.19853516 -19.4609375 3.46484375 C-21.97784916 3.88345192 -21.97784916 3.88345192 -24 5 C-26.3400417 4.71758117 -28.67504723 4.38749213 -31 4 C-31.66 6.97 -32.32 9.94 -33 13 C-33.33 13 -33.66 13 -34 13 C-34 9.7 -34 6.4 -34 3 C-31.5559375 2.814375 -31.5559375 2.814375 -29.0625 2.625 C-25.4904998 2.31142746 -22.150104 1.85868333 -18.6875 0.9375 C-12.54897904 -0.57472688 -6.27439727 -0.13127431 0 0 Z " fill="#120702" transform="translate(827,268)"/>
<path d="M0 0 C1.98 0 3.96 0 6 0 C6.33 0.99 6.66 1.98 7 3 C11.95 3 16.9 3 22 3 C22.33 4.32 22.66 5.64 23 7 C18.77156021 8.18292476 14.80145408 8.18381734 10.4375 8.1875 C9.28604492 8.20586914 9.28604492 8.20586914 8.11132812 8.22460938 C4.21582126 8.23479815 2.3133801 8.20892006 -1 6 C-0.67 4.02 -0.34 2.04 0 0 Z " fill="#331E0E" transform="translate(893,824)"/>
<path d="M0 0 C0.66 3.96 1.32 7.92 2 12 C-3.00101226 12 -4.81601432 11.99124383 -8.6875 8.75 C-11.02406007 5.97138802 -11.69558521 4.55150592 -12 1 C-7.89864774 0.35665063 -4.17263102 0 0 0 Z " fill="#1D1008" transform="translate(588,260)"/>
<path d="M0 0 C0.66 0.33 1.32 0.66 2 1 C2 1.66 2 2.32 2 3 C3.32 2.67 4.64 2.34 6 2 C6.33 2.99 6.66 3.98 7 5 C8.7015625 4.9690625 8.7015625 4.9690625 10.4375 4.9375 C14 5 14 5 15 6 C16.45620979 6.13053673 17.91529026 6.22983035 19.375 6.3125 C23.71217885 6.75450549 23.71217885 6.75450549 26.125 8.8125 C27 11 27 11 26 15 C17.09 14.67 8.18 14.34 -1 14 C-1 13.34 -1 12.68 -1 12 C6.59 12 14.18 12 22 12 C21.67 11.01 21.34 10.02 21 9 C20.09636719 9.03480469 19.19273437 9.06960938 18.26171875 9.10546875 C17.08222656 9.13253906 15.90273438 9.15960937 14.6875 9.1875 C12.92986328 9.23970703 12.92986328 9.23970703 11.13671875 9.29296875 C7.67074344 8.96924752 7.13629696 8.5531354 5 6 C1.89160979 5.2730774 1.89160979 5.2730774 -1 5 C-1.33 5.99 -1.66 6.98 -2 8 C-2 6.02 -2 4.04 -2 2 C-1.34 2 -0.68 2 0 2 C0 1.34 0 0.68 0 0 Z " fill="#200E03" transform="translate(894,819)"/>
<path d="M0 0 C0.66 0.33 1.32 0.66 2 1 C1.75650314 1.80467712 1.75650314 1.80467712 1.50808716 2.62561035 C0.89988539 5.46785497 0.8727825 8.08227568 0.87060547 10.99023438 C0.86745331 12.19828735 0.86430115 13.40634033 0.86105347 14.65100098 C0.8630777 15.95210815 0.86510193 17.25321533 0.8671875 18.59375 C0.86651354 19.94608579 0.86554275 21.29842146 0.86428833 22.65075684 C0.86281569 25.48186397 0.86495197 28.31293951 0.86962891 31.14404297 C0.87532594 34.76888291 0.87204462 38.3936488 0.86605644 42.01848602 C0.86243912 44.8100439 0.86359481 47.60158429 0.86618423 50.3931427 C0.86717363 52.37842863 0.86414212 54.36371525 0.86105347 56.34899902 C0.86420563 57.557052 0.86735779 58.76510498 0.87060547 60.00976562 C0.87140106 61.07247681 0.87219666 62.13518799 0.87301636 63.23010254 C0.98480514 65.66855407 1.37856734 67.65900037 2 70 C1.66015625 72.359375 1.66015625 72.359375 1.0625 74.75 C0.86785156 75.54921875 0.67320312 76.3484375 0.47265625 77.171875 C0.31667969 77.77515625 0.16070313 78.3784375 0 79 C-0.33 79 -0.66 79 -1 79 C-1.02312392 68.84733849 -1.04091534 58.6946832 -1.05181217 48.54200077 C-1.05704089 43.82820267 -1.06413834 39.11442253 -1.07543945 34.40063477 C-1.08626873 29.85544596 -1.09227692 25.31027448 -1.09487724 20.76507378 C-1.09673142 19.02705042 -1.10035189 17.28902806 -1.10573006 15.55101204 C-1.11294103 13.12521405 -1.11399092 10.69948854 -1.11352539 8.27368164 C-1.11712067 7.54791931 -1.12071594 6.82215698 -1.12442017 6.07440186 C-1.11405216 1.11405216 -1.11405216 1.11405216 0 0 Z " fill="#130801" transform="translate(749,277)"/>
<path d="M0 0 C0.33 0 0.66 0 1 0 C1 2.31 1 4.62 1 7 C1.66 7 2.32 7 3 7 C3 7.66 3 8.32 3 9 C1.41005885 10.45917963 -0.24987572 11.84249355 -1.9375 13.1875 C-3.43023437 14.38246094 -3.43023437 14.38246094 -4.953125 15.6015625 C-8.95534711 18.75202965 -12.96018123 21.89781818 -17 25 C-18.5 23.6875 -18.5 23.6875 -20 22 C-20 21.01 -20 20.02 -20 19 C-18.02 19.99 -18.02 19.99 -16 21 C-15.67 20.01 -15.34 19.02 -15 18 C-14.01 17.34 -13.02 16.68 -12 16 C-10.94895617 14.36504293 -9.94011682 12.70116376 -9 11 C-7.68 11.33 -6.36 11.66 -5 12 C-4.731875 11.319375 -4.46375 10.63875 -4.1875 9.9375 C-2.83946694 6.60289191 -1.42463702 3.30256763 0 0 Z " fill="#180D07" transform="translate(340,342)"/>
<path d="M0 0 C1.81790617 3.40885946 2.38956087 6.06429128 2.6875 9.9375 C2.77386719 10.95714844 2.86023438 11.97679687 2.94921875 13.02734375 C3 16 3 16 2.50927734 18.21777344 C1.87501336 21.68281293 1.88830905 24.96557192 1.90234375 28.48828125 C1.9037587 29.19147995 1.90517365 29.89467865 1.90663147 30.6191864 C1.91219891 32.85033544 1.92474525 35.08138164 1.9375 37.3125 C1.94251921 38.83137875 1.94708138 40.35025909 1.95117188 41.86914062 C1.96215764 45.57946012 1.97939966 49.28972001 2 53 C1.34 52.67 0.68 52.34 0 52 C-1.04388023 45.53164911 -1.07644186 39.24786768 -0.87890625 32.71484375 C-0.85529526 31.77314835 -0.83168427 30.83145294 -0.80735779 29.86122131 C-0.7314687 26.8864648 -0.64712805 23.91201941 -0.5625 20.9375 C-0.50920425 18.9069157 -0.45646453 16.87631672 -0.40429688 14.84570312 C-0.27595623 9.8969426 -0.14004128 4.94844267 0 0 Z " fill="#120701" transform="translate(792,284)"/>
<path d="M0 0 C0.33 0 0.66 0 1 0 C2.00540109 10.29544314 2.12049498 20.47954577 2.0625 30.8125 C2.05746947 32.3912746 2.05290934 33.97005078 2.04882812 35.54882812 C2.03795816 39.3659252 2.02078136 43.18294455 2 47 C-0.91785406 44.08214594 -0.5141827 40.93000002 -0.6875 37 C-0.7280249 36.18362061 -0.7685498 35.36724121 -0.81030273 34.52612305 C-1.26286245 23.01406867 -0.59361077 11.49666568 0 0 Z " fill="#0F1317" transform="translate(159,340)"/>
<path d="M0 0 C1.101173 3.30351899 1.03109831 5.51387172 0.87890625 8.98046875 C0.83056641 10.14384766 0.78222656 11.30722656 0.73242188 12.50585938 C0.67634766 13.72080078 0.62027344 14.93574219 0.5625 16.1875 C0.51029297 17.41404297 0.45808594 18.64058594 0.40429688 19.90429688 C0.27451599 22.93645018 0.13954569 25.96828294 0 29 C-0.33 28.01 -0.66 27.02 -1 26 C-1.66 25.67 -2.32 25.34 -3 25 C-2.67 24.67 -2.34 24.34 -2 24 C-1.84259395 22.29436222 -1.74906608 20.58272756 -1.68359375 18.87109375 C-1.64169922 17.83662109 -1.59980469 16.80214844 -1.55664062 15.73632812 C-1.51732422 14.64771484 -1.47800781 13.55910156 -1.4375 12.4375 C-1.39431641 11.34501953 -1.35113281 10.25253906 -1.30664062 9.12695312 C-1.20017932 6.41810436 -1.09816484 3.70916008 -1 1 C-4.01811597 1.99208528 -6.99123113 2.99645514 -9.9375 4.1875 C-14.61583369 5.42869057 -18.47859896 4.50713368 -23 3 C-18.72688812 1.41210646 -14.91937871 0.66234947 -10.375 0.375 C-9.26898437 0.30023438 -8.16296875 0.22546875 -7.0234375 0.1484375 C-4.68458593 0.03361016 -2.34166864 0 0 0 Z " fill="#130802" transform="translate(741,277)"/>
<path d="M0 0 C2 1 2 1 3.25 3.125 C4.24330623 6.93267389 3.14652011 9.29067024 2 13 C2.32301773 14.33586992 2.65732656 15.66903651 3 17 C2.91460388 18.6500734 2.76227882 20.29734051 2.5625 21.9375 C1.89172285 28.30128318 1.9085342 34.60755703 2 41 C1.34 41 0.68 41 0 41 C0 27.47 0 13.94 0 0 Z " fill="#281204" transform="translate(794,557)"/>
<path d="M0 0 C0.5625 2.625 0.5625 2.625 0 6 C-2.7720515 8.39920247 -5.80672254 10.21328523 -9 12 C-9 10.02 -9 8.04 -9 6 C-9.66 6 -10.32 6 -11 6 C-10.67 4.35 -10.34 2.7 -10 1 C-8.5209084 0.83266843 -7.04172444 0.66615314 -5.5625 0.5 C-4.32693359 0.36078125 -4.32693359 0.36078125 -3.06640625 0.21875 C-1 0 -1 0 0 0 Z " fill="#160A04" transform="translate(432,273)"/>
<path d="M0 0 C0 3.10551666 -0.5393715 4.35261084 -2 7 C-1.34 7 -0.68 7 0 7 C0.05402274 9.10388569 0.09280256 11.20816714 0.125 13.3125 C0.14820313 14.48425781 0.17140625 15.65601563 0.1953125 16.86328125 C0 20 0 20 -2 23 C-4.99389671 18.0141481 -4.51159413 12.63505891 -4 7 C-2.08333333 2.08333333 -2.08333333 2.08333333 0 0 Z " fill="#F99E46" transform="translate(304,383)"/>
<path d="M0 0 C0.66 0.33 1.32 0.66 2 1 C1.50371094 1.52722656 1.00742187 2.05445313 0.49609375 2.59765625 C-1.4860318 5.7804427 -1.24174969 7.73079609 -0.9375 11.4375 C-0.82728516 13.10619141 -0.82728516 13.10619141 -0.71484375 14.80859375 C0.46333568 20.06855327 3.64288827 23.04338847 8 26 C5.875 26 5.875 26 3 25 C-2.17327838 19.36879985 -4.33379255 15.09188503 -4.30078125 7.48828125 C-3.88873743 4.07955508 -2.46782052 2.31358174 0 0 Z " fill="#F2A04D" transform="translate(430,429)"/>
<path d="M0 0 C3.65397188 3.65397188 4.7671092 9.13464972 6.47827148 13.94897461 C7.18495707 15.93037016 7.90731555 17.90556752 8.63085938 19.88085938 C9.08169639 21.1376743 9.53159795 22.39482526 9.98046875 23.65234375 C10.39192139 24.79695068 10.80337402 25.94155762 11.22729492 27.12084961 C12 30 12 30 11 33 C10.01083967 30.64960987 9.03363319 28.29533139 8.0625 25.9375 C7.64581055 24.95233398 7.64581055 24.95233398 7.22070312 23.94726562 C5.44318052 19.59983081 4.4802742 15.67507417 4 11 C2.02 11.99 2.02 11.99 0 13 C0 11.35 0 9.7 0 8 C0.66 8 1.32 8 2 8 C1.67 7.236875 1.34 6.47375 1 5.6875 C0 3 0 3 0 0 Z " fill="#EEA858" transform="translate(369,672)"/>
<path d="M0 0 C0.33 0 0.66 0 1 0 C1.97960463 10.48930498 1.89571109 20.51329011 1 31 C0.34 30.67 -0.32 30.34 -1 30 C-0.99476318 29.42032471 -0.98952637 28.84064941 -0.98413086 28.2434082 C-0.96325666 25.5997833 -0.95030673 22.95617579 -0.9375 20.3125 C-0.92912109 19.40048828 -0.92074219 18.48847656 -0.91210938 17.54882812 C-0.90888672 16.66259766 -0.90566406 15.77636719 -0.90234375 14.86328125 C-0.89710693 14.05157471 -0.89187012 13.23986816 -0.88647461 12.40356445 C-0.93689156 9.94456507 -0.93689156 9.94456507 -1.56469727 7.37182617 C-2.11899844 4.35161536 -1.31945283 2.71652054 0 0 Z " fill="#150901" transform="translate(782,599)"/>
<path d="M0 0 C-3.087489 1.67481715 -6.11379928 2.70402783 -9.5 3.625 C-10.90765625 4.01558594 -10.90765625 4.01558594 -12.34375 4.4140625 C-15 5 -15 5 -19 5 C-19 5.66 -19 6.32 -19 7 C-23.02040985 7.69584017 -26.08263419 8.1700097 -30 7 C-27.50090425 6.2053846 -25.00078857 5.41425597 -22.5 4.625 C-21.45585937 4.29242188 -21.45585937 4.29242188 -20.390625 3.953125 C-6.75999365 -0.33799968 -6.75999365 -0.33799968 0 0 Z " fill="#EF9E4F" transform="translate(483,337)"/>
<path d="M0 0 C0.33 0.99 0.66 1.98 1 3 C1.99 3 2.98 3 4 3 C5.84236356 10.49227846 7.07279988 17.96224852 6.9609375 25.703125 C6.83511343 28.03017669 6.83511343 28.03017669 8 30 C6.68 30.33 5.36 30.66 4 31 C4.06960938 29.20755859 4.06960938 29.20755859 4.140625 27.37890625 C4.65180444 16.12689942 4.65180444 16.12689942 0.875 5.7265625 C0 4 0 4 0 0 Z " fill="#F6A14D" transform="translate(695,687)"/>
<path d="M0 0 C1 1 1 1 1.09765625 2.84765625 C1.06510417 4.8984375 1.03255208 6.94921875 1 9 C0.67 9 0.34 9 0 9 C-0.33 6.36 -0.66 3.72 -1 1 C-1.680625 1.165 -2.36125 1.33 -3.0625 1.5 C-6.4164822 2.07089059 -9.60389805 2.06659023 -13 2 C-12.34 3.65 -11.68 5.3 -11 7 C-14.65316671 5.75023244 -15.78065836 5.32901247 -18 2 C-12.20156531 -0.57708209 -6.22882157 -0.41654639 0 0 Z " fill="#120904" transform="translate(589,259)"/>
<path d="M0 0 C0 3.571581 -1.10089191 4.89045843 -3.40917969 7.52001953 C-6.1336748 10.05468641 -9.24231605 11.46087917 -12.625 12.9375 C-13.62660156 13.41026367 -13.62660156 13.41026367 -14.6484375 13.89257812 C-19.59707172 16.13430943 -19.59707172 16.13430943 -23 15 C-21 14 -19 13 -17 12 C-16.31550781 11.64035156 -15.63101562 11.28070313 -14.92578125 10.91015625 C-13.87970703 10.36681641 -13.87970703 10.36681641 -12.8125 9.8125 C-12.15894531 9.46832031 -11.50539063 9.12414062 -10.83203125 8.76953125 C-9 8 -9 8 -6 8 C-6 7.01 -6 6.02 -6 5 C-5.01 5 -4.02 5 -3 5 C-2.690625 4.360625 -2.38125 3.72125 -2.0625 3.0625 C-1 1 -1 1 0 0 Z " fill="#070E13" transform="translate(394,148)"/>
<path d="M0 0 C1.64933228 0.06399526 3.29615131 0.20073916 4.9375 0.375 C6.28134766 0.51035156 6.28134766 0.51035156 7.65234375 0.6484375 C10 1 10 1 12 2 C11.67 3.32 11.34 4.64 11 6 C10.67 5.34 10.34 4.68 10 4 C7.03 4 4.06 4 1 4 C0.67 5.98 0.34 7.96 0 10 C-0.33 10 -0.66 10 -1 10 C-1.02689216 8.52093108 -1.04634621 7.04172517 -1.0625 5.5625 C-1.07410156 4.73878906 -1.08570313 3.91507813 -1.09765625 3.06640625 C-1 1 -1 1 0 0 Z M10 7 C10 7.66 10 8.32 10 9 C8.02 9 6.04 9 4 9 C7.75 7 7.75 7 10 7 Z " fill="#251004" transform="translate(561,604)"/>
<path d="M0 0 C0.99 0.495 0.99 0.495 2 1 C2 1.66 2 2.32 2 3 C2.66 3 3.32 3 4 3 C4.33 2.01 4.66 1.02 5 0 C5.33 1.65 5.66 3.3 6 5 C6.66 5 7.32 5 8 5 C8 4.01 8 3.02 8 2 C8.66 2 9.32 2 10 2 C10 3.65 10 5.3 10 7 C7.03 7 4.06 7 1 7 C0.67 4.69 0.34 2.38 0 0 Z " fill="#F99B3D" transform="translate(763,731)"/>
<path d="M0 0 C2 0.0625 2 0.0625 4 1 C4.70211894 2.65204456 5.36971413 4.31923769 6 6 C6.99 6.33 7.98 6.66 9 7 C9.33 8.65 9.66 10.3 10 12 C8.55680308 11.09232898 7.12065894 10.17343894 5.6875 9.25 C4.88699219 8.73953125 4.08648438 8.2290625 3.26171875 7.703125 C0.99631139 5.99722239 -0.42684167 4.34191855 -2 2 C-1.34 1.34 -0.68 0.68 0 0 Z " fill="#130904" transform="translate(540,232)"/>
<path d="M0 0 C1.26549993 3.79649978 0.30826178 5.30608437 -1 9 C-1 9.99 -1 10.98 -1 12 C-1.66 12 -2.32 12 -3 12 C-3.33 18.27 -3.66 24.54 -4 31 C-4.33 31 -4.66 31 -5 31 C-5.45371442 19.543711 -5.22993298 10.45986595 0 0 Z " fill="#F3AD5F" transform="translate(644,684)"/>
<path d="M0 0 C0.66 0.33 1.32 0.66 2 1 C-5.44511645 5.80279955 -12.42494044 8.90430159 -21 11 C-18.65538638 8.38721162 -16.24886045 6.89342026 -13.125 5.3125 C-12.28195312 4.87550781 -11.43890625 4.43851563 -10.5703125 3.98828125 C-7.8487809 2.94185649 -5.88802076 2.80850042 -3 3 C-3 2.34 -3 1.68 -3 1 C-2.01 0.67 -1.02 0.34 0 0 Z " fill="#060D12" transform="translate(272,209)"/>
<path d="M0 0 C5.61 0 11.22 0 17 0 C17 0.66 17 1.32 17 2 C12.05 2 7.1 2 2 2 C2 3.65 2 5.3 2 7 C1.34 6.34 0.68 5.68 0 5 C0 3.35 0 1.7 0 0 Z " fill="#D4934F" transform="translate(159,723)"/>
<path d="M0 0 C0.66 0.33 1.32 0.66 2 1 C0.71034824 2.37562854 -0.62689293 3.70766393 -2 5 C-2.66 5 -3.32 5 -4 5 C-3.67 6.32 -3.34 7.64 -3 9 C-3.99 9.66 -4.98 10.32 -6 11 C-6.46271324 15.81221774 -5.74817615 19.52029862 -4 24 C-6.42306346 21.68228712 -7.88587818 20.23997751 -8.203125 16.79296875 C-8.3623614 7.94207888 -8.3623614 7.94207888 -5 4 C-2.3125 1.6875 -2.3125 1.6875 0 0 Z " fill="#EEA659" transform="translate(391,380)"/>
<path d="M0 0 C3.84846561 3.48550737 5.56873979 7.86912265 7.75 12.5 C8.17410156 13.36753906 8.59820312 14.23507812 9.03515625 15.12890625 C9.62876953 16.37994141 9.62876953 16.37994141 10.234375 17.65625 C10.59756836 18.41744141 10.96076172 19.17863281 11.33496094 19.96289062 C12 22 12 22 11 25 C10.32845067 23.71086513 9.66291141 22.41859796 9 21.125 C8.62875 20.40570312 8.2575 19.68640625 7.875 18.9453125 C7 17 7 17 7 15 C6.01 14.67 5.02 14.34 4 14 C3.896875 13.13375 3.79375 12.2675 3.6875 11.375 C2.96548932 7.83058395 1.66706956 5.18917655 0 2 C0 1.34 0 0.68 0 0 Z " fill="#EFA656" transform="translate(257,689)"/>
<path d="M0 0 C1.65 0 3.3 0 5 0 C5 7.59 5 15.18 5 23 C4.67 23 4.34 23 4 23 C3.67 16.4 3.34 9.8 3 3 C-0.11785113 3.64644661 -0.11785113 3.64644661 -1 6 C-1.042721 4.33388095 -1.04063832 2.66617115 -1 1 C-0.67 0.67 -0.34 0.34 0 0 Z " fill="#1B0D05" transform="translate(290,390)"/>
<path d="M0 0 C-5.98280342 5.11410597 -14.39980317 5.33778653 -22 5 C-21.67 4.34 -21.34 3.68 -21 3 C-18.3828125 2.40234375 -18.3828125 2.40234375 -15.125 1.9375 C-1.59203187 -0.03537849 -1.59203187 -0.03537849 0 0 Z " fill="#050D12" transform="translate(711,113)"/>
<path d="M0 0 C3.125 -0.1875 3.125 -0.1875 6 0 C5.25 4.75 5.25 4.75 3 7 C2.01 7 1.02 7 0 7 C0 6.01 0 5.02 0 4 C-0.66 3.67 -1.32 3.34 -2 3 C-1.34 2.01 -0.68 1.02 0 0 Z " fill="#2F1809" transform="translate(820,373)"/>
<path d="M0 0 C0.66 0.33 1.32 0.66 2 1 C0.78258021 2.46815389 -0.44948761 3.92416847 -1.6875 5.375 C-2.37199219 6.18710938 -3.05648438 6.99921875 -3.76171875 7.8359375 C-6.12312219 10.1190396 -7.9116802 10.98410533 -11 12 C-12.34050052 12.65213539 -13.67661368 13.31379969 -15 14 C-12.11461208 10.13220619 -9.01811193 7.19301785 -5.25 4.1875 C-4.26515625 3.39730469 -3.2803125 2.60710937 -2.265625 1.79296875 C-1.51796875 1.20128906 -0.7703125 0.60960937 0 0 Z " fill="#F3A049" transform="translate(472,245)"/>
<path d="M0 0 C0.66 0.33 1.32 0.66 2 1 C2 1.66 2 2.32 2 3 C3.32 2.67 4.64 2.34 6 2 C6.33 2.99 6.66 3.98 7 5 C9.31 5 11.62 5 14 5 C14.33 5.66 14.66 6.32 15 7 C9.22192976 7.2358396 4.48675196 6.86783046 -1 5 C-1.33 5.99 -1.66 6.98 -2 8 C-2 6.02 -2 4.04 -2 2 C-1.34 2 -0.68 2 0 2 C0 1.34 0 0.68 0 0 Z " fill="#140A02" transform="translate(894,819)"/>
<path d="M0 0 C4.29 0 8.58 0 13 0 C13.33 3.96 13.66 7.92 14 12 C10.99382731 8.99382731 11.40414684 6.17618402 11 2 C6.9899066 1.82135369 6.9899066 1.82135369 3 2 C2.34 2.66 1.68 3.32 1 4 C0.67 2.68 0.34 1.36 0 0 Z " fill="#0E0500" transform="translate(769,510)"/>
<path d="M0 0 C0.33 0.99 0.66 1.98 1 3 C-2.38807422 6.38807422 -13.10636499 5.01453688 -18.04296875 5.0625 C-21.36262354 5.0625 -24.68067945 5.04540104 -28 5 C-28 4.67 -28 4.34 -28 4 C-26.67935547 3.90912109 -26.67935547 3.90912109 -25.33203125 3.81640625 C-24.17058594 3.73261719 -23.00914062 3.64882813 -21.8125 3.5625 C-20.08966797 3.44068359 -20.08966797 3.44068359 -18.33203125 3.31640625 C-15.09577558 3.06780926 -15.09577558 3.06780926 -12.3359375 2.4609375 C-10.05826087 2.01149629 -8.12301232 1.95971125 -5.8125 2.0625 C-1.97802661 2.4416409 -1.97802661 2.4416409 0 0 Z " fill="#120701" transform="translate(825,419)"/>
<path d="M0 0 C0.91974313 2.75922938 1.32229002 5.06175521 1.625 7.9375 C1.72039063 8.79214844 1.81578125 9.64679688 1.9140625 10.52734375 C1.99742259 12.92584097 1.70844369 14.72134904 1 17 C2.32 17.33 3.64 17.66 5 18 C4.34 18.33 3.68 18.66 3 19 C2.01 18.67 1.02 18.34 0 18 C-1.52491129 14.95017742 -1.14361434 11.77877461 -1.125 8.4375 C-1.12886719 7.73947266 -1.13273438 7.04144531 -1.13671875 6.32226562 C-1.12663994 1.12663994 -1.12663994 1.12663994 0 0 Z " fill="#0D0400" transform="translate(748,409)"/>
<path d="M0 0 C1.95218444 3.27688103 2.27063566 5.77069727 2.25 9.5625 C2.25515625 10.51253906 2.2603125 11.46257812 2.265625 12.44140625 C2 15 2 15 0 18 C-0.66 17.67 -1.32 17.34 -2 17 C-1.76603516 16.00419922 -1.76603516 16.00419922 -1.52734375 14.98828125 C-1.33269531 14.10527344 -1.13804687 13.22226563 -0.9375 12.3125 C-0.64166016 11.00732422 -0.64166016 11.00732422 -0.33984375 9.67578125 C0.02095894 6.83497847 -0.39964685 4.7748606 -1 2 C-0.67 1.34 -0.34 0.68 0 0 Z " fill="#120905" transform="translate(499,205)"/>
<path d="M0 0 C2.00720923 0.28674418 4.0085944 0.61866701 6 1 C6.33 2.32 6.66 3.64 7 5 C4.36 5 1.72 5 -1 5 C-1 1 -1 1 0 0 Z " fill="#1A0C02" transform="translate(886,826)"/>
<path d="M0 0 C-1.62319675 1.31472947 -3.248615 2.62671662 -4.875 3.9375 C-5.77992188 4.66839844 -6.68484375 5.39929688 -7.6171875 6.15234375 C-11.31606523 9.02048993 -13.35766822 9.10092026 -18 9 C-15.61965269 7.80982635 -13.25911541 6.68040273 -10.8125 5.625 C-7.86106059 4.30620267 -7.86106059 4.30620267 -7.125 1.8125 C-7.08375 1.214375 -7.0425 0.61625 -7 0 C-2.25 -1.125 -2.25 -1.125 0 0 Z " fill="#EEA659" transform="translate(414,402)"/>
<path d="M0 0 C2 1 2 1 3.25 3.1875 C4.56155313 8.10582423 2.19439236 11.61121527 0 16 C0 10.72 0 5.44 0 0 Z " fill="#1D0C02" transform="translate(794,557)"/>
<path d="M0 0 C0.66 0.33 1.32 0.66 2 1 C-0.46752291 3.85098931 -3.06931943 5.12177169 -6.5 6.625 C-7.4590625 7.05039063 -8.418125 7.47578125 -9.40625 7.9140625 C-12 9 -12 9 -15 10 C-15 9.34 -15 8.68 -15 8 C-12.54665445 6.63603538 -10.08808766 5.28365831 -7.625 3.9375 C-6.92632812 3.54755859 -6.22765625 3.15761719 -5.5078125 2.75585938 C-3.70389816 1.77584822 -1.85416518 0.88124929 0 0 Z " fill="#070F13" transform="translate(204,240)"/>
<path d="M0 0 C0.6875 1.625 0.6875 1.625 1 4 C-0.4375 7.25 -0.4375 7.25 -2 10 C-1.34 10 -0.68 10 0 10 C0 10.99 0 11.98 0 13 C-0.99 13.33 -1.98 13.66 -3 14 C-3.66 14.66 -4.32 15.32 -5 16 C-3.90301833 10.30860098 -2.45946923 5.25432063 0 0 Z " fill="#F4A351" transform="translate(332,714)"/>
<path d="M0 0 C0.9075 0.309375 1.815 0.61875 2.75 0.9375 C6.80427667 2.2629366 10.81528419 3.18630526 15 4 C15 4.99 15 5.98 15 7 C4.11971831 4.02112676 4.11971831 4.02112676 0 1 C0 0.67 0 0.34 0 0 Z " fill="#F09D4B" transform="translate(169,706)"/>
<path d="M0 0 C6.25293959 0.26053915 10.6274905 2.43441865 15 7 C15 7.99 15 8.98 15 10 C14.4225 9.360625 13.845 8.72125 13.25 8.0625 C10.96213771 5.9652929 9.92345791 5.60485336 7 5 C6.67 4.34 6.34 3.68 6 3 C4.68 3 3.36 3 2 3 C2 2.34 2 1.68 2 1 C1.34 0.67 0.68 0.34 0 0 Z " fill="#F2A551" transform="translate(196,666)"/>
<path d="M0 0 C0.66 0.33 1.32 0.66 2 1 C1.09515208 2.15518918 0.1755794 3.29885406 -0.75 4.4375 C-1.26046875 5.07558594 -1.7709375 5.71367187 -2.296875 6.37109375 C-4.22688639 8.21699914 -5.41221461 8.54087678 -8 9 C-9.3479743 9.63654342 -10.68596724 10.29605388 -12 11 C-8.68542782 6.30435607 -4.63720719 3.27530896 0 0 Z " fill="#F4A44F" transform="translate(372,326)"/>
<path d="M0 0 C0.33 0 0.66 0 1 0 C1 3.63 1 7.26 1 11 C-3.455 11.495 -3.455 11.495 -8 12 C-7.67 11.34 -7.34 10.68 -7 10 C-4.4375 9.375 -4.4375 9.375 -2 9 C-1.34 6.03 -0.68 3.06 0 0 Z " fill="#110601" transform="translate(258,435)"/>
<path d="M0 0 C1.33897583 0.95043374 2.67105427 1.91059147 4 2.875 C5.11375 3.67550781 5.11375 3.67550781 6.25 4.4921875 C6.8275 4.98976562 7.405 5.48734375 8 6 C8 6.66 8 7.32 8 8 C7.01 8.33 6.02 8.66 5 9 C2.7363436 7.59554165 0.9791315 5.8032087 -1 4 C-0.67 2.68 -0.34 1.36 0 0 Z " fill="#150B06" transform="translate(530,224)"/>
<path d="M0 0 C-2.04791862 2.04791862 -3.14820414 2.56265691 -5.8125 3.5 C-8.2012955 4.3481955 -10.49241177 5.21884968 -12.8125 6.25 C-15 7 -15 7 -18 6 C-17.25234375 5.66226563 -16.5046875 5.32453125 -15.734375 4.9765625 C-14.74953125 4.53054687 -13.7646875 4.08453125 -12.75 3.625 C-11.77546875 3.18414062 -10.8009375 2.74328125 -9.796875 2.2890625 C-7.0693814 1.07839274 -7.0693814 1.07839274 -4.828125 -0.2265625 C-3 -1 -3 -1 0 0 Z " fill="#060E12" transform="translate(247,223)"/>
<path d="M0 0 C2.97 0.495 2.97 0.495 6 1 C5.34 3.31 4.68 5.62 4 8 C3.34 8 2.68 8 2 8 C0.74335022 5.09399739 0 3.20395416 0 0 Z " fill="#150704" transform="translate(766,706)"/>
<path d="M0 0 C0.66 0.33 1.32 0.66 2 1 C-0.64 3.97 -3.28 6.94 -6 10 C-7.32 9.67 -8.64 9.34 -10 9 C-6.7 6.03 -3.4 3.06 0 0 Z " fill="#F6A049" transform="translate(358,337)"/>
<path d="M0 0 C0 2 0 2 -1.75 4 C-3.82134431 5.84119495 -5.53884518 6.80911864 -8 8 C-9.70921589 9.5412312 -9.70921589 9.5412312 -11 11 C-9.7672897 6.34309441 -5.30909278 0 0 0 Z " fill="#F5A44D" transform="translate(174,668)"/>
<path d="M0 0 C0.66 0.33 1.32 0.66 2 1 C1.67 5.29 1.34 9.58 1 14 C-1.46226454 11.53773546 -1.69375228 10.4452868 -2 7 C-1.0625 3.1875 -1.0625 3.1875 0 0 Z " fill="#140801" transform="translate(826,405)"/>
<path d="M0 0 C0.99 0 1.98 0 3 0 C3.66 2.64 4.32 5.28 5 8 C3.35 7.67 1.7 7.34 0 7 C0 4.69 0 2.38 0 0 Z " fill="#140A08" transform="translate(363,708)"/>
<path d="M0 0 C2.0625 0.4375 2.0625 0.4375 4 1 C4 1.99 4 2.98 4 4 C1 5 1 5 -3 5 C-1.125 1.125 -1.125 1.125 0 0 Z " fill="#2E1708" transform="translate(803,626)"/>
<path d="M0 0 C2.6855594 2.6855594 3.06049974 5.37621328 4 9 C2.68 10.32 1.36 11.64 0 13 C0 11.35 0 9.7 0 8 C0.66 8 1.32 8 2 8 C1.67 7.236875 1.34 6.47375 1 5.6875 C0 3 0 3 0 0 Z " fill="#F49B4A" transform="translate(369,672)"/>
<path d="M0 0 C1.32 0.33 2.64 0.66 4 1 C2.57277341 2.1998278 1.13284224 3.3845576 -0.3125 4.5625 C-1.51326172 5.55443359 -1.51326172 5.55443359 -2.73828125 6.56640625 C-3.85783203 7.27603516 -3.85783203 7.27603516 -5 8 C-5.99 7.67 -6.98 7.34 -8 7 C-7.236875 6.5875 -6.47375 6.175 -5.6875 5.75 C-3.0633358 4.04124191 -1.69678024 2.58982247 0 0 Z " fill="#F0A151" transform="translate(453,447)"/>
<path d="M0 0 C2.31 0.33 4.62 0.66 7 1 C7.309375 1.78375 7.61875 2.5675 7.9375 3.375 C8.92875038 5.92330128 8.92875038 5.92330128 10 8 C6.05205855 6.32971708 3.18203882 3.8204435 0 1 C0 0.67 0 0.34 0 0 Z " fill="#F1A14E" transform="translate(534,271)"/>
<path d="M0 0 C3.91402949 1.26941497 5.79072873 2.51167694 8 6 C7.34 6 6.68 6 6 6 C6 6.66 6 7.32 6 8 C5.01 7.67 4.02 7.34 3 7 C3 5.68 3 4.36 3 3 C1.5833253 1.2488427 1.5833253 1.2488427 0 0 Z " fill="#F89E48" transform="translate(205,704)"/>
<path d="M0 0 C2.56616632 3.84924948 2.55097676 6.4349304 3 11 C2.01 11 1.02 11 0 11 C0 7.37 0 3.74 0 0 Z " fill="#0A0604" transform="translate(724,391)"/>
<path d="M0 0 C0 0.66 0 1.32 0 2 C0.66 2.33 1.32 2.66 2 3 C-1.63 2.67 -5.26 2.34 -9 2 C-6.98558063 -2.02883874 -3.72407517 -0.90585612 0 0 Z " fill="#1D0E08" transform="translate(535,398)"/>
<path d="M0 0 C0.598125 0.33 1.19625 0.66 1.8125 1 C4.05386471 2.20787988 4.05386471 2.20787988 7 2 C7.66 1.67 8.32 1.34 9 1 C8.34 2.98 7.68 4.96 7 7 C5.82780457 6.21654285 4.66236332 5.42297164 3.5 4.625 C2.8503125 4.18414062 2.200625 3.74328125 1.53125 3.2890625 C1.0259375 2.86367188 0.520625 2.43828125 0 2 C0 1.34 0 0.68 0 0 Z " fill="#1D0D05" transform="translate(708,372)"/>
<path d="M0 0 C-3.08809695 1.76462683 -4.23312136 2 -8 2 C-8 2.66 -8 3.32 -8 4 C-10.64 4 -13.28 4 -16 4 C-10.99926683 1.19958943 -5.74548584 -0.34821126 0 0 Z " fill="#FD8927" transform="translate(480,339)"/>
<path d="M0 0 C-3.63195496 2.42130331 -5.38349348 2.21022785 -9.6875 2.125 C-10.86699219 2.10695313 -12.04648437 2.08890625 -13.26171875 2.0703125 C-14.16535156 2.04710937 -15.06898438 2.02390625 -16 2 C-16 1.67 -16 1.34 -16 1 C-15.06027344 0.90912109 -15.06027344 0.90912109 -14.1015625 0.81640625 C-12.87566406 0.69072266 -12.87566406 0.69072266 -11.625 0.5625 C-10.81289063 0.48128906 -10.00078125 0.40007812 -9.1640625 0.31640625 C-2.671875 -0.6328125 -2.671875 -0.6328125 0 0 Z " fill="#0F0600" transform="translate(732,427)"/>
<path d="M0 0 C3.96 0 7.92 0 12 0 C10.515 1.485 10.515 1.485 9 3 C6.5 2.625 6.5 2.625 4 2 C3.01 2.33 2.02 2.66 1 3 C0.67 2.01 0.34 1.02 0 0 Z " fill="#120701" transform="translate(314,309)"/>
<path d="M0 0 C0.99 0.66 1.98 1.32 3 2 C2.67 3.32 2.34 4.64 2 6 C0.35 5.67 -1.3 5.34 -3 5 C-2.34 4.67 -1.68 4.34 -1 4 C-0.34786708 1.97536745 -0.34786708 1.97536745 0 0 Z " fill="#251104" transform="translate(813,622)"/>
<path d="M0 0 C0.33 0 0.66 0 1 0 C1.27429625 5.39449293 1.36055646 8.51925805 -2 13 C-3.18771723 9.57056481 -2.80226223 7.62215325 -1.5625 4.25 C-1.27503906 3.45078125 -0.98757813 2.6515625 -0.69140625 1.828125 C-0.46324219 1.22484375 -0.23507812 0.6215625 0 0 Z " fill="#FD8822" transform="translate(596,436)"/>
<path d="M0 0 C0.99 0 1.98 0 3 0 C3 2.64 3 5.28 3 8 C2.01 8.33 1.02 8.66 0 9 C0 6.03 0 3.06 0 0 Z " fill="#EC8934" transform="translate(721,392)"/>
<path d="M0 0 C3.81684226 1.55500981 6.19195732 4.03595495 9 7 C7.6078125 6.505 7.6078125 6.505 6.1875 6 C3.07970709 4.85032996 3.07970709 4.85032996 0 5 C0 3.33333333 0 1.66666667 0 0 Z " fill="#F4A04C" transform="translate(642,320)"/>
<path d="M0 0 C3.94139078 1.66751148 6.7892812 4.22710649 10 7 C6.85331714 7 5.68541824 6.47264871 3 5 C2.34 4.67 1.68 4.34 1 4 C0.375 1.9375 0.375 1.9375 0 0 Z " fill="#F5A44F" transform="translate(584,273)"/>
<path d="M0 0 C0.598125 0.350625 1.19625 0.70125 1.8125 1.0625 C0.8225 2.0525 -0.1675 3.0425 -1.1875 4.0625 C-2.5075 3.4025 -3.8275 2.7425 -5.1875 2.0625 C-5.1875 1.4025 -5.1875 0.7425 -5.1875 0.0625 C-2.1875 -0.9375 -2.1875 -0.9375 0 0 Z " fill="#FA9B41" transform="translate(373.1875,362.9375)"/>
<path d="M0 0 C0.66 0.33 1.32 0.66 2 1 C0.1875 4 0.1875 4 -2 7 C-5 7 -5 7 -7 6 C-4.69 4.02 -2.38 2.04 0 0 Z " fill="#150806" transform="translate(441,310)"/>
<path d="M0 0 C0.66 0.33 1.32 0.66 2 1 C-2.02167317 3.96837781 -5.00088076 5.52389341 -10 6 C-6.87511433 3.47605388 -3.68685613 1.60298093 0 0 Z " fill="#080F13" transform="translate(312,190)"/>
<path d="M0 0 C0.66 0.33 1.32 0.66 2 1 C2.125 3.875 2.125 3.875 2 7 C1.34 7.66 0.68 8.32 0 9 C-1.125 2.25 -1.125 2.25 0 0 Z " fill="#1A0B02" transform="translate(814,634)"/>
<path d="M0 0 C0 0.66 0 1.32 0 2 C-2.75078884 2.91692961 -4.35948913 3.10886083 -7.1875 3.0625 C-9.0746875 3.0315625 -9.0746875 3.0315625 -11 3 C-7.13828168 1.00255949 -4.44822596 0 0 0 Z " fill="#1F1008" transform="translate(492,432)"/>
<path d="M0 0 C3.625 -0.1875 3.625 -0.1875 7 0 C6 2 6 2 3.625 3.1875 C1 4 1 4 -2 3 C-1.34 2.01 -0.68 1.02 0 0 Z " fill="#0E1418" transform="translate(316,186)"/>
<path d="M0 0 C0.33 0.99 0.66 1.98 1 3 C-1.91765 4.9451 -3.62537285 5.45276317 -7 6 C-2.25 1.125 -2.25 1.125 0 0 Z " fill="#F3A04C" transform="translate(417,361)"/>
<path d="M0 0 C3.81684226 1.55500981 6.19195732 4.03595495 9 7 C5.21616321 6.07506212 3.43306306 5.60628829 1.125 2.375 C0.75375 1.59125 0.3825 0.8075 0 0 Z " fill="#F1A352" transform="translate(611,295)"/>
<path d="M0 0 C0.66 0.33 1.32 0.66 2 1 C1.34 2.98 0.68 4.96 0 7 C-0.99 5.68 -1.98 4.36 -3 3 C-2 1 -2 1 0 0 Z " fill="#FB9D46" transform="translate(445,734)"/>
<path d="M0 0 C0.33 0 0.66 0 1 0 C1 3.63 1 7.26 1 11 C-1.62962963 7.05555556 -1.62962963 7.05555556 -2 4 C-1.0625 1.75 -1.0625 1.75 0 0 Z " fill="#120701" transform="translate(421,616)"/>
<path d="M0 0 C0 3.52032428 -0.70351351 4.4385343 -3 7 C-3.66 7 -4.32 7 -5 7 C-5 6.01 -5 5.02 -5 4 C-4.34 4 -3.68 4 -3 4 C-3 3.34 -3 2.68 -3 2 C-2.01 1.34 -1.02 0.68 0 0 Z " fill="#ED9B48" transform="translate(532,502)"/>
<path d="M0 0 C6.0546875 -0.1953125 6.0546875 -0.1953125 8 0 C8.66 0.66 9.32 1.32 10 2 C5.94568308 3.15837626 3.78187881 2.83691257 0 1 C0 0.67 0 0.34 0 0 Z " fill="#F39A44" transform="translate(554,371)"/>
<path d="M0 0 C-2.64 1.98 -5.28 3.96 -8 6 C-6.53781513 1.3697479 -6.53781513 1.3697479 -4 -0.375 C-2 -1 -2 -1 0 0 Z " fill="#F5A34E" transform="translate(488,273)"/>
</svg>
